<svg id="Imported_Layers_3" data-name="Imported Layers 3" xmlns="http://www.w3.org/2000/svg" width="14" height="11" viewBox="0 0 14 11">
  <g id="Group">
    <path id="Fill_1" data-name="Fill 1" d="M11.994,11H2.006A2,2,0,0,1,0,9.008V1.992A2,2,0,0,1,2.006,0h9.988A2,2,0,0,1,14,1.992V9.008A2,2,0,0,1,11.994,11ZM2,1A1,1,0,0,0,1,2V9a1,1,0,0,0,1,1H12a1,1,0,0,0,1-1V2a1,1,0,0,0-1-1Z" fill="#086d81"/>
    <path id="Fill_2" data-name="Fill 2" d="M0,0H1V1H0" transform="translate(11 7.953)" fill="#086d81"/>
    <path id="Fill_3" data-name="Fill 3" d="M0,0H1V1H0" transform="translate(9.016 7.953)" fill="#086d81"/>
    <path id="Fill_4" data-name="Fill 4" d="M0,0H12V1.984H0" transform="translate(1 2.997)" fill="#086d81"/>
  </g>
</svg>
