<svg xmlns="http://www.w3.org/2000/svg" width="11" height="12" viewBox="0 0 11 12">
  <path id="Imported_Layers" data-name="Imported Layers" d="M9.008,12H1.992A2,2,0,0,1,0,10V6A2,2,0,0,1,1.992,4H2.2A4.688,4.688,0,0,1,3,1.172,2.987,2.987,0,0,1,5.5,0,2.987,2.987,0,0,1,8,1.172,4.691,4.691,0,0,1,8.8,4h.208A2,2,0,0,1,11,6v4A2,2,0,0,1,9.008,12ZM2,4.922a1,1,0,0,0-1,.991V9.931a1,1,0,0,0,1,.992H9a1,1,0,0,0,1-.992V5.913a1,1,0,0,0-1-.991ZM5.5,1c-2,0-2.3,1.879-2.3,3H7.8a4.253,4.253,0,0,0-.4-1.92A2,2,0,0,0,5.5,1Z" fill="#086d81"/>
</svg>
