<svg xmlns="http://www.w3.org/2000/svg" width="158.414" height="52.953" viewBox="0 0 158.414 52.953">
  <g id="btn-play-store-black" transform="translate(0 0)">
    <g id="Group_3" data-name="Group 3" transform="translate(0 0)">
      <g id="Group_1" data-name="Group 1">
        <path id="Path_5" data-name="Path 5" d="M145.8,0H12.622c-.485,0-.965,0-1.449,0-.405,0-.807.01-1.217.017A17.494,17.494,0,0,0,7.3.253a8.823,8.823,0,0,0-2.516.83,8.522,8.522,0,0,0-2.143,1.56A8.285,8.285,0,0,0,1.085,4.79,8.739,8.739,0,0,0,.257,7.31,17.2,17.2,0,0,0,.02,9.96c-.012.406-.014.813-.02,1.219v30.6c.006.411.008.809.02,1.22a17.2,17.2,0,0,0,.237,2.65,8.721,8.721,0,0,0,.827,2.521,8.218,8.218,0,0,0,1.56,2.137,8.306,8.306,0,0,0,2.143,1.56A8.871,8.871,0,0,0,7.3,52.7a17.812,17.812,0,0,0,2.653.234c.409.009.811.014,1.217.014.484,0,.964,0,1.449,0H145.8c.476,0,.959,0,1.435,0,.4,0,.817-.005,1.22-.014A17.578,17.578,0,0,0,151.1,52.7a9.008,9.008,0,0,0,2.526-.835,8.31,8.31,0,0,0,2.141-1.56,8.466,8.466,0,0,0,1.564-2.137,8.743,8.743,0,0,0,.82-2.521A17.882,17.882,0,0,0,158.4,43c.005-.411.005-.809.005-1.22.01-.481.01-.959.01-1.448V12.624c0-.485,0-.966-.01-1.445,0-.406,0-.813-.005-1.219a17.877,17.877,0,0,0-.246-2.65,8.76,8.76,0,0,0-.82-2.52,8.56,8.56,0,0,0-3.705-3.706A8.959,8.959,0,0,0,151.1.253a17.268,17.268,0,0,0-2.648-.234c-.4-.006-.817-.014-1.22-.017-.476,0-.959,0-1.435,0Z" transform="translate(0 0)" fill="#a6a6a6"/>
        <path id="Path_6" data-name="Path 6" d="M10.9,51.511c-.4,0-.8-.005-1.2-.014a16.8,16.8,0,0,1-2.474-.216,7.789,7.789,0,0,1-2.193-.725A7.156,7.156,0,0,1,3.183,49.21a7.044,7.044,0,0,1-1.351-1.849,7.575,7.575,0,0,1-.719-2.194,16.433,16.433,0,0,1-.22-2.482c-.008-.279-.019-1.209-.019-1.209V10.9S.885,9.98.892,9.711a16.376,16.376,0,0,1,.219-2.478,7.619,7.619,0,0,1,.719-2.2A7.114,7.114,0,0,1,3.175,3.182,7.368,7.368,0,0,1,5.031,1.828a7.709,7.709,0,0,1,2.189-.72A16.661,16.661,0,0,1,9.7.891L10.9.875H146.945l1.209.017a16.4,16.4,0,0,1,2.46.215,7.862,7.862,0,0,1,2.212.725,7.405,7.405,0,0,1,3.2,3.2,7.63,7.63,0,0,1,.709,2.183,17.2,17.2,0,0,1,.23,2.5c0,.375,0,.778,0,1.178.01.5.01.969.01,1.445V40.047c0,.481,0,.95-.01,1.423,0,.431,0,.825-.005,1.231a16.861,16.861,0,0,1-.226,2.454,7.6,7.6,0,0,1-.715,2.211,7.256,7.256,0,0,1-1.344,1.834,7.166,7.166,0,0,1-1.853,1.354,7.76,7.76,0,0,1-2.208.728,16.6,16.6,0,0,1-2.475.216c-.388.009-.794.014-1.188.014l-1.435,0Z" transform="translate(0.283 0.284)"/>
      </g>
      <g id="_Group_" data-name="&lt;Group&gt;" transform="translate(13.201 11.544)">
        <g id="_Group_2" data-name="&lt;Group&gt;">
          <g id="_Group_3" data-name="&lt;Group&gt;">
            <path id="_Path_" data-name="&lt;Path&gt;" d="M29.561,22.35a6.551,6.551,0,0,1,3.12-5.5A6.706,6.706,0,0,0,27.4,14c-2.223-.233-4.378,1.33-5.511,1.33-1.155,0-2.9-1.307-4.777-1.268a7.037,7.037,0,0,0-5.921,3.611c-2.56,4.433-.651,10.947,1.8,14.53,1.227,1.755,2.661,3.714,4.538,3.645,1.836-.076,2.522-1.171,4.739-1.171,2.2,0,2.839,1.171,4.754,1.127,1.97-.032,3.212-1.762,4.4-3.533a14.512,14.512,0,0,0,2.01-4.094,6.331,6.331,0,0,1-3.865-5.824Z" transform="translate(-9.972 -7.019)" fill="#fff"/>
            <path id="_Path_2" data-name="&lt;Path&gt;" d="M23.089,13.341A6.45,6.45,0,0,0,24.564,8.72a6.563,6.563,0,0,0-4.246,2.2,6.138,6.138,0,0,0-1.514,4.45,5.426,5.426,0,0,0,4.285-2.026Z" transform="translate(-7.116 -8.72)" fill="#fff"/>
          </g>
        </g>
        <g id="Group_2" data-name="Group 2" transform="translate(32.375 12.114)">
          <path id="Path_7" data-name="Path 7" d="M44.852,30.074H38.586l-1.5,4.443H34.427l5.935-16.439H43.12l5.935,16.439h-2.7Zm-5.617-2.05H44.2l-2.449-7.211h-.069Z" transform="translate(-34.427 -17.804)" fill="#fff"/>
          <path id="Path_8" data-name="Path 8" d="M57.921,27.467c0,3.725-1.993,6.118-5,6.118a4.063,4.063,0,0,1-3.771-2.1h-.057v5.937h-2.46V21.474h2.381v1.993h.045a4.252,4.252,0,0,1,3.816-2.119C55.916,21.348,57.921,23.753,57.921,27.467Zm-2.529,0c0-2.427-1.254-4.022-3.167-4.022-1.88,0-3.144,1.629-3.144,4.022,0,2.415,1.264,4.032,3.144,4.032,1.913,0,3.167-1.584,3.167-4.032Z" transform="translate(-30.475 -16.746)" fill="#fff"/>
          <path id="Path_9" data-name="Path 9" d="M67.886,27.467c0,3.725-1.993,6.118-5,6.118a4.063,4.063,0,0,1-3.771-2.1h-.057v5.937H56.6V21.474h2.381v1.993h.045a4.252,4.252,0,0,1,3.816-2.119C65.881,21.348,67.886,23.753,67.886,27.467Zm-2.529,0c0-2.427-1.254-4.022-3.167-4.022-1.88,0-3.144,1.629-3.144,4.022,0,2.415,1.264,4.032,3.144,4.032,1.913,0,3.167-1.584,3.167-4.032Z" transform="translate(-27.248 -16.746)" fill="#fff"/>
          <path id="Path_10" data-name="Path 10" d="M72.327,30c.182,1.63,1.766,2.7,3.93,2.7,2.074,0,3.566-1.07,3.566-2.54,0-1.276-.9-2.04-3.03-2.564l-2.131-.513c-3.019-.729-4.42-2.141-4.42-4.432,0-2.836,2.472-4.785,5.982-4.785,3.474,0,5.855,1.948,5.935,4.785H79.675c-.149-1.641-1.5-2.631-3.487-2.631s-3.338,1-3.338,2.46c0,1.162.866,1.846,2.985,2.37l1.811.445c3.373.8,4.774,2.153,4.774,4.557,0,3.076-2.45,5-6.346,5-3.646,0-6.107-1.881-6.266-4.854Z" transform="translate(-22.97 -17.871)" fill="#fff"/>
          <path id="Path_11" data-name="Path 11" d="M84.377,19.3v2.836h2.279v1.948H84.377v6.607c0,1.026.456,1.5,1.458,1.5a7.688,7.688,0,0,0,.809-.057v1.937a6.756,6.756,0,0,1-1.366.114c-2.427,0-3.373-.911-3.373-3.236v-6.87H80.163V22.136h1.743V19.3Z" transform="translate(-19.617 -17.408)" fill="#fff"/>
          <path id="Path_12" data-name="Path 12" d="M86.065,27.472c0-3.771,2.221-6.141,5.684-6.141s5.686,2.37,5.686,6.141-2.2,6.141-5.686,6.141S86.065,31.253,86.065,27.472Zm8.863,0c0-2.587-1.186-4.114-3.179-4.114s-3.178,1.538-3.178,4.114c0,2.6,1.184,4.112,3.178,4.112s3.179-1.515,3.179-4.112Z" transform="translate(-17.706 -16.751)" fill="#fff"/>
          <path id="Path_13" data-name="Path 13" d="M96.186,21.474h2.346v2.04h.057a2.859,2.859,0,0,1,2.883-2.165,3.794,3.794,0,0,1,.843.092v2.3a3.439,3.439,0,0,0-1.105-.149,2.479,2.479,0,0,0-2.564,2.758v7.109h-2.46Z" transform="translate(-14.428 -16.746)" fill="#fff"/>
          <path id="Path_14" data-name="Path 14" d="M112.029,29.944c-.331,2.176-2.45,3.669-5.161,3.669-3.487,0-5.651-2.336-5.651-6.084s2.176-6.2,5.547-6.2c3.316,0,5.4,2.278,5.4,5.912v.843H103.7v.149a3.122,3.122,0,0,0,3.224,3.395,2.712,2.712,0,0,0,2.768-1.686Zm-8.317-3.577H109.7a2.882,2.882,0,0,0-2.94-3.042,3.034,3.034,0,0,0-3.052,3.042Z" transform="translate(-12.799 -16.751)" fill="#fff"/>
        </g>
      </g>
    </g>
    <g id="_Group_4" data-name="&lt;Group&gt;" transform="translate(47.222 11.169)">
      <g id="Group_4" data-name="Group 4">
        <path id="Path_15" data-name="Path 15" d="M38.524,8.733a3.494,3.494,0,0,1,3.717,3.925c0,2.524-1.364,3.974-3.717,3.974H35.671v-7.9ZM36.9,15.515h1.489a2.483,2.483,0,0,0,2.6-2.841,2.49,2.49,0,0,0-2.6-2.825H36.9Z" transform="translate(-35.671 -8.344)" fill="#fff"/>
        <path id="Path_16" data-name="Path 16" d="M41.684,13.2a2.824,2.824,0,1,1,5.622,0,2.824,2.824,0,1,1-5.622,0Zm4.412,0c0-1.292-.58-2.048-1.6-2.048s-1.6.756-1.6,2.048.575,2.052,1.6,2.052S46.1,14.5,46.1,13.2Z" transform="translate(-33.728 -7.896)" fill="#fff"/>
        <path id="Path_17" data-name="Path 17" d="M53.194,16.156h-1.22l-1.232-4.39h-.093l-1.227,4.39H48.213l-1.643-5.961h1.193l1.068,4.549h.088l1.226-4.549h1.129L52.5,14.744h.093l1.063-4.549H54.83Z" transform="translate(-32.142 -7.868)" fill="#fff"/>
        <path id="Path_18" data-name="Path 18" d="M53.854,10.224h1.133v.947h.088a1.785,1.785,0,0,1,1.779-1.062,1.939,1.939,0,0,1,2.063,2.217v3.859H57.74V12.622c0-.958-.416-1.434-1.286-1.434A1.367,1.367,0,0,0,55.03,12.7v3.487H53.854Z" transform="translate(-29.783 -7.897)" fill="#fff"/>
        <path id="Path_19" data-name="Path 19" d="M59.094,8.437H60.27v8.288H59.094Z" transform="translate(-28.086 -8.437)" fill="#fff"/>
        <path id="Path_20" data-name="Path 20" d="M61.221,13.2a2.824,2.824,0,1,1,5.623,0,2.825,2.825,0,1,1-5.623,0Zm4.412,0c0-1.292-.58-2.048-1.6-2.048s-1.6.756-1.6,2.048.575,2.052,1.6,2.052S65.633,14.5,65.633,13.2Z" transform="translate(-27.401 -7.896)" fill="#fff"/>
        <path id="Path_21" data-name="Path 21" d="M66.4,14.5c0-1.073.8-1.692,2.217-1.78l1.615-.093v-.515c0-.63-.416-.985-1.22-.985-.657,0-1.112.241-1.242.663H66.631c.12-1.024,1.083-1.681,2.436-1.681,1.494,0,2.337.744,2.337,2v4.073H70.272v-.838h-.093a2.006,2.006,0,0,1-1.791.936A1.8,1.8,0,0,1,66.4,14.5Zm3.832-.509v-.5l-1.456.093c-.821.055-1.193.334-1.193.86s.465.849,1.105.849a1.405,1.405,0,0,0,1.544-1.3Z" transform="translate(-25.72 -7.896)" fill="#fff"/>
        <path id="Path_22" data-name="Path 22" d="M71.348,13.742c0-1.884.968-3.077,2.474-3.077a1.965,1.965,0,0,1,1.828,1.046h.088V8.437h1.176v8.288H75.788v-.942h-.093a2.069,2.069,0,0,1-1.872,1.04C72.306,16.823,71.348,15.63,71.348,13.742Zm1.215,0c0,1.264.6,2.025,1.593,2.025s1.6-.772,1.6-2.02-.619-2.025-1.6-2.025-1.593.766-1.593,2.02Z" transform="translate(-24.118 -8.437)" fill="#fff"/>
        <path id="Path_23" data-name="Path 23" d="M79.233,13.2a2.824,2.824,0,1,1,5.622,0,2.824,2.824,0,1,1-5.622,0Zm4.412,0c0-1.292-.58-2.048-1.6-2.048s-1.6.756-1.6,2.048.575,2.052,1.6,2.052S83.646,14.5,83.646,13.2Z" transform="translate(-21.569 -7.896)" fill="#fff"/>
        <path id="Path_24" data-name="Path 24" d="M84.669,10.224H85.8v.947h.088a1.784,1.784,0,0,1,1.779-1.062,1.939,1.939,0,0,1,2.063,2.217v3.859H88.556V12.622c0-.958-.416-1.434-1.286-1.434A1.367,1.367,0,0,0,85.846,12.7v3.487H84.669Z" transform="translate(-19.804 -7.897)" fill="#fff"/>
        <path id="Path_25" data-name="Path 25" d="M94.035,9.074v1.511h1.292v.991H94.035v3.065c0,.624.257.9.843.9a3.926,3.926,0,0,0,.449-.027v.98a3.86,3.86,0,0,1-.64.06c-1.308,0-1.829-.46-1.829-1.61V11.576h-.946v-.991h.946V9.074Z" transform="translate(-17.459 -8.231)" fill="#fff"/>
        <path id="Path_26" data-name="Path 26" d="M95.7,8.437h1.166v3.285h.093a1.834,1.834,0,0,1,1.818-1.068,1.964,1.964,0,0,1,2.053,2.222v3.849H99.657V13.167c0-.952-.443-1.434-1.275-1.434a1.393,1.393,0,0,0-1.5,1.511v3.482H95.7Z" transform="translate(-16.23 -8.437)" fill="#fff"/>
        <path id="Path_27" data-name="Path 27" d="M106.073,14.574A2.42,2.42,0,0,1,103.49,16.3a2.708,2.708,0,0,1-2.753-3.077,2.749,2.749,0,0,1,2.748-3.114c1.659,0,2.659,1.133,2.659,3.005v.41h-4.209v.066a1.576,1.576,0,0,0,1.588,1.708,1.429,1.429,0,0,0,1.418-.723Zm-4.138-1.921h3.011a1.438,1.438,0,0,0-1.467-1.544,1.525,1.525,0,0,0-1.544,1.544Z" transform="translate(-14.609 -7.896)" fill="#fff"/>
      </g>
    </g>
  </g>
</svg>
