<?xml version="1.0" encoding="UTF-8"?>
<svg width="40px" height="17px" viewBox="0 0 40 17" version="1.1" xmlns="http://www.w3.org/2000/svg" xmlns:xlink="http://www.w3.org/1999/xlink">
    <!-- Generator: Sketch 45.2 (43514) - http://www.bohemiancoding.com/sketch -->
    <title>Bathroom</title>
    <desc>Created with Sketch.</desc>
    <defs></defs>
    <g id="Symbols" stroke="none" stroke-width="1" fill="none" fill-rule="evenodd">
        <g id="Property-grid-tile" transform="translate(-77.000000, -346.000000)">
            <g id="Bathroom">
                <g transform="translate(76.000000, 344.000000)">
                    <text id="3" font-family=".SFNSText, .SF NS Text" font-size="14" font-weight="normal" fill="#7F829E">
                        <tspan x="33" y="15">3</tspan>
                    </text>
                    <g id="cle-towel" fill="#B2B4C6">
                        <path d="M3.93753281,15.09375 L3.93753281,18.046875 C3.93753281,18.2283281 4.08453281,18.375 4.26565781,18.375 L13.4531578,18.375 C13.6342828,18.375 13.7812828,18.2283281 13.7812828,18.046875 L13.7812828,15.09375 L3.93753281,15.09375 Z" id="Fill-67"></path>
                        <path d="M18.0469078,4.59375 C17.6196891,4.59375 17.2587516,4.86871875 17.1229078,5.25 L16.3869234,5.25 C16.2228609,3.77573437 14.9704078,2.625 13.4531578,2.625 L6.89065781,2.625 C5.37340781,2.625 4.12095469,3.77573437 3.95689219,5.25 L3.22090781,5.25 C3.08506406,4.86871875 2.72412656,4.59375 2.29690781,4.59375 C1.75418906,4.59375 1.31253281,5.03540625 1.31253281,5.578125 C1.31253281,6.12084375 1.75418906,6.5625 2.29690781,6.5625 C2.72412656,6.5625 3.08506406,6.28753125 3.22090781,5.90625 L3.93753281,5.90625 L3.93753281,14.4375 L13.7812828,14.4375 L13.7812828,5.578125 C13.7812828,5.39667188 13.9282828,5.25 14.1094078,5.25 C14.2905328,5.25 14.4375328,5.39667188 14.4375328,5.578125 L14.4375328,5.90625 L17.1229078,5.90625 C17.2587516,6.28753125 17.6196891,6.5625 18.0469078,6.5625 C18.5896266,6.5625 19.0312828,6.12084375 19.0312828,5.578125 C19.0312828,5.03540625 18.5896266,4.59375 18.0469078,4.59375" id="Fill-69"></path>
                        <polygon id="Fill-71" points="14.4375 13.125 16.40625 13.125 16.40625 6.5625 14.4375 6.5625"></polygon>
                        <path d="M14.4375328,13.78125 L14.4375328,17.0625 L16.0781578,17.0625 C16.2592828,17.0625 16.4062828,16.9158281 16.4062828,16.734375 L16.4062828,13.78125 L14.4375328,13.78125 Z" id="Fill-73"></path>
                    </g>
                </g>
            </g>
        </g>
    </g>
</svg>