<?xml version="1.0" encoding="UTF-8"?>
<svg width="10px" height="11px" viewBox="0 0 10 11" version="1.1" xmlns="http://www.w3.org/2000/svg" xmlns:xlink="http://www.w3.org/1999/xlink">
    <!-- Generator: Sketch 45.2 (43514) - http://www.bohemiancoding.com/sketch -->
    <title>bell</title>
    <desc>Created with Sketch.</desc>
    <defs></defs>
    <g id="Page-1" stroke="none" stroke-width="1" fill="none" fill-rule="evenodd">
        <g id="General---Dashboard" transform="translate(-278.000000, -2064.000000)" fill="#FFFFFF">
            <g id="Maintenance-request" transform="translate(-4.000000, 1899.000000)">
                <g id="MR-tile" transform="translate(24.000000, 70.000000)">
                    <g id="notification" transform="translate(254.000000, 92.000000)">
                        <path d="M13.546875,11.9375 C13.659,11.9375 13.75,12.0285 13.75,12.140625 C13.75,12.25275 13.659,12.34375 13.546875,12.34375 L4.203125,12.34375 C4.091,12.34375 4,12.25275 4,12.140625 C4,12.0285 4.091,11.9375 4.203125,11.9375 C4.76314063,11.9375 5.21875,11.4818906 5.21875,10.921875 L5.42248437,8.26560938 C5.60164062,5.75803125 6.78057812,4.07514063 8.46875,3.84276563 L8.46875,3.203125 C8.46875,3.091 8.55975,3 8.671875,3 L9.078125,3 C9.19025,3 9.28125,3.091 9.28125,3.203125 L9.28125,3.84276563 C10.9694219,4.07514063 12.1483594,5.75803125 12.3277187,8.26642187 L12.5306406,10.9062344 C12.53125,11.4818906 12.9868594,11.9375 13.546875,11.9375 Z M7.46917188,12.75 L10.2808281,12.75 C9.99970313,13.2352656 9.47604688,13.5625 8.875,13.5625 C8.27395313,13.5625 7.75029688,13.2352656 7.46917188,12.75 Z" id="bell"></path>
                    </g>
                </g>
            </g>
        </g>
    </g>
</svg>