<?xml version="1.0" encoding="UTF-8"?>
<svg width="10px" height="14px" viewBox="0 0 10 14" version="1.1" xmlns="http://www.w3.org/2000/svg" xmlns:xlink="http://www.w3.org/1999/xlink">
    <!-- Generator: Sketch 45.2 (43514) - http://www.bohemiancoding.com/sketch -->
    <title>double arrow</title>
    <desc>Created with Sketch.</desc>
    <defs></defs>
    <g id="Symbols" stroke="none" stroke-width="1" fill="none" fill-rule="evenodd">
        <g id="Incremental-dropdown--white-bg" transform="translate(-310.000000, -39.000000)" fill="#B1B3C5">
            <g id="Drop-down---white-bg">
                <g id="Box" transform="translate(1.000000, 27.000000)">
                    <g id="double-arrow" transform="translate(309.000000, 12.000000)">
                        <path d="M7.45555916,15.8271431 L2.19233087,11.0902376 C2.13680381,11.0405001 2.10522444,10.9691834 2.10522444,10.8947087 C2.10522444,10.820234 2.13680381,10.7489173 2.19233087,10.6991798 L7.45555916,5.96227429 C7.53319178,5.89253651 7.64398273,5.87543102 7.73872084,5.91753685 C7.83372211,5.95964268 7.89477556,6.05411762 7.89477556,6.15780322 L7.89477556,15.6316141 C7.89477556,15.7355629 7.83372211,15.8297747 7.73872084,15.8718805 C7.7042467,15.887407 7.66793042,15.8947756 7.63161415,15.8947756 C7.56792908,15.8947756 7.50503351,15.8716174 7.45555916,15.8271431 Z" id="arrow" transform="translate(5.000000, 10.894776) scale(1, -1) rotate(90.000000) translate(-5.000000, -10.894776) "></path>
                        <path d="M7.45555916,7.82714308 L2.19233087,3.09023761 C2.13680381,3.04050011 2.10522444,2.96918336 2.10522444,2.89470868 C2.10522444,2.820234 2.13680381,2.74891726 2.19233087,2.69917975 L7.45555916,-2.03772571 C7.53319178,-2.10746349 7.64398273,-2.12456898 7.73872084,-2.08246315 C7.83372211,-2.04035732 7.89477556,-1.94588238 7.89477556,-1.84219678 L7.89477556,7.63161415 C7.89477556,7.7355629 7.83372211,7.82977469 7.73872084,7.87188052 C7.7042467,7.88740704 7.66793042,7.89477556 7.63161415,7.89477556 C7.56792908,7.89477556 7.50503351,7.87161736 7.45555916,7.82714308 Z" id="arrow-copy" transform="translate(5.000000, 2.894776) rotate(90.000000) translate(-5.000000, -2.894776) "></path>
                    </g>
                </g>
            </g>
        </g>
    </g>
</svg>