<svg xmlns="http://www.w3.org/2000/svg" xmlns:xlink="http://www.w3.org/1999/xlink" width="178.717" height="52.953" viewBox="0 0 178.717 52.953">
  <defs>
    <linearGradient id="linear-gradient" x1="0.908" y1="1.032" x2="-0.383" y2="0.36" gradientUnits="objectBoundingBox">
      <stop offset="0" stop-color="#00a0ff"/>
      <stop offset="0.007" stop-color="#00a1ff"/>
      <stop offset="0.26" stop-color="#00beff"/>
      <stop offset="0.512" stop-color="#00d2ff"/>
      <stop offset="0.76" stop-color="#00dfff"/>
      <stop offset="1" stop-color="#00e3ff"/>
    </linearGradient>
    <linearGradient id="linear-gradient-2" x1="1.077" y1="0.729" x2="-1.307" y2="0.729" gradientUnits="objectBoundingBox">
      <stop offset="0" stop-color="#ffe000"/>
      <stop offset="0.409" stop-color="#ffbd00"/>
      <stop offset="0.775" stop-color="orange"/>
      <stop offset="1" stop-color="#ff9c00"/>
    </linearGradient>
    <linearGradient id="linear-gradient-3" x1="0.864" y1="-0.023" x2="-0.499" y2="-1.789" gradientUnits="objectBoundingBox">
      <stop offset="0" stop-color="#ff3a44"/>
      <stop offset="1" stop-color="#c31162"/>
    </linearGradient>
    <linearGradient id="linear-gradient-4" x1="-0.186" y1="2.701" x2="0.423" y2="1.909" gradientUnits="objectBoundingBox">
      <stop offset="0" stop-color="#32a071"/>
      <stop offset="0.069" stop-color="#2da771"/>
      <stop offset="0.476" stop-color="#15cf74"/>
      <stop offset="0.801" stop-color="#06e775"/>
      <stop offset="1" stop-color="#00f076"/>
    </linearGradient>
  </defs>
  <g id="btn-google-play-black" transform="translate(-0.001 0)">
    <path id="Path_28" data-name="Path 28" d="M172.1,52.953H6.619A6.555,6.555,0,0,1,0,46.334V6.619A6.555,6.555,0,0,1,6.619,0H172.1a6.555,6.555,0,0,1,6.619,6.619V46.334A6.555,6.555,0,0,1,172.1,52.953Z"/>
    <path id="Path_29" data-name="Path 29" d="M172.1,1.059a5.594,5.594,0,0,1,5.56,5.56V46.334a5.594,5.594,0,0,1-5.56,5.56H6.619a5.594,5.594,0,0,1-5.56-5.56V6.619a5.594,5.594,0,0,1,5.56-5.56H172.1M172.1,0H6.619A6.638,6.638,0,0,0,0,6.619V46.334a6.555,6.555,0,0,0,6.619,6.619H172.1a6.555,6.555,0,0,0,6.619-6.619V6.619A6.638,6.638,0,0,0,172.1,0Z" fill="#a6a6a6"/>
    <path id="Path_30" data-name="Path 30" d="M49.343,11.269a3.606,3.606,0,0,1-.927,2.648A4.1,4.1,0,0,1,41.4,11a4.068,4.068,0,0,1,4.1-4.1,3.525,3.525,0,0,1,1.589.4,2.883,2.883,0,0,1,1.191.927l-.662.662A2.469,2.469,0,0,0,45.5,7.959a2.634,2.634,0,0,0-2.118.927,2.727,2.727,0,0,0-.927,2.251,2.727,2.727,0,0,0,.927,2.251,3.409,3.409,0,0,0,2.118.927,2.9,2.9,0,0,0,2.251-.927,2.192,2.192,0,0,0,.662-1.589H45.5V10.739h3.839v.53Zm6.09-3.31H51.858v2.515h3.31V11.4h-3.31v2.515h3.574v1.059H50.8V7.032h4.633ZM59.8,14.975H58.742V7.959H56.492V7.032h5.56v.927H59.8Zm6.09,0V7.032H66.95v7.943Zm5.56,0H70.392V7.959H68.141V7.032h5.428v.927h-2.25v7.016Zm12.576-1.059A4.1,4.1,0,0,1,77.011,11a4.1,4.1,0,1,1,8.208,0A3.892,3.892,0,0,1,84.027,13.916ZM79,13.254a3.124,3.124,0,0,0,2.118.927,2.634,2.634,0,0,0,2.118-.927A3.194,3.194,0,0,0,84.16,11a2.727,2.727,0,0,0-.927-2.251,3.124,3.124,0,0,0-2.118-.927A2.634,2.634,0,0,0,79,8.753,3.194,3.194,0,0,0,78.07,11,2.727,2.727,0,0,0,79,13.254Zm7.678,1.721V7.032h1.191l3.839,6.222V7.032h1.059v7.943H91.705L87.6,8.489v6.487h-.927Z" transform="translate(13.406 2.234)" fill="#fff" stroke="#fff" stroke-miterlimit="10" stroke-width="0.2"/>
    <path id="Path_31" data-name="Path 31" d="M76.843,23.322a5.569,5.569,0,0,0-5.692,5.692,5.65,5.65,0,0,0,5.692,5.692,5.57,5.57,0,0,0,5.692-5.692A5.492,5.492,0,0,0,76.843,23.322Zm0,9a3.286,3.286,0,0,1-3.177-3.442,3.286,3.286,0,0,1,3.177-3.442,3.207,3.207,0,0,1,3.177,3.442A3.286,3.286,0,0,1,76.843,32.324Zm-12.312-9a5.569,5.569,0,0,0-5.692,5.692,5.65,5.65,0,0,0,5.692,5.692,5.57,5.57,0,0,0,5.692-5.692A5.492,5.492,0,0,0,64.532,23.322Zm0,9a3.286,3.286,0,0,1-3.177-3.442,3.286,3.286,0,0,1,3.177-3.442,3.207,3.207,0,0,1,3.177,3.442A3.286,3.286,0,0,1,64.532,32.324ZM49.837,25.043v2.383H55.53a5.006,5.006,0,0,1-1.324,3.045,5.86,5.86,0,0,1-4.369,1.721,6.163,6.163,0,0,1-6.222-6.354,6.245,6.245,0,0,1,6.222-6.354A6.564,6.564,0,0,1,54.206,21.2l1.721-1.721A8.483,8.483,0,0,0,49.97,17.1a8.93,8.93,0,0,0-8.87,8.737,8.93,8.93,0,0,0,8.87,8.737,7.619,7.619,0,0,0,6.09-2.515,7.969,7.969,0,0,0,2.118-5.56,4.964,4.964,0,0,0-.132-1.456H49.837Zm60.1,1.853a5.144,5.144,0,0,0-4.766-3.574,5.332,5.332,0,0,0-5.3,5.692,5.54,5.54,0,0,0,5.56,5.692,5.43,5.43,0,0,0,4.633-2.515l-1.853-1.324a3.227,3.227,0,0,1-2.78,1.589,2.872,2.872,0,0,1-2.78-1.721l7.546-3.177-.265-.662Zm-7.678,1.853a3.216,3.216,0,0,1,2.912-3.31,2.342,2.342,0,0,1,2.118,1.191l-5.031,2.118Zm-6.222,5.428h2.515V17.63H96.039Zm-3.971-9.664a4.359,4.359,0,0,0-3.045-1.324,5.688,5.688,0,0,0-5.428,5.692,5.482,5.482,0,0,0,5.428,5.56,3.8,3.8,0,0,0,2.912-1.324h.132v.794c0,2.118-1.191,3.31-3.045,3.31a2.941,2.941,0,0,1-2.78-1.986l-2.118.927a5.461,5.461,0,0,0,5.031,3.31c2.912,0,5.3-1.721,5.3-5.825V23.587H92.067v.927Zm-2.912,7.811a3.286,3.286,0,0,1-3.177-3.442,3.286,3.286,0,0,1,3.177-3.442A3.185,3.185,0,0,1,92.2,28.882,3.185,3.185,0,0,1,89.155,32.324Zm32.3-14.694H115.5V34.177h2.515V27.955h3.442a5.169,5.169,0,1,0,0-10.326Zm.132,7.943h-3.574V19.88h3.574a2.908,2.908,0,0,1,2.912,2.78,3.03,3.03,0,0,1-2.912,2.912Zm15.224-2.383a4.45,4.45,0,0,0-4.369,2.515l2.251.927a2.338,2.338,0,0,1,2.251-1.191,2.488,2.488,0,0,1,2.648,2.118v.132a5.251,5.251,0,0,0-2.515-.662c-2.383,0-4.766,1.324-4.766,3.707a3.878,3.878,0,0,0,4.1,3.707,3.725,3.725,0,0,0,3.177-1.589h.132v1.324h2.383V27.823A5.01,5.01,0,0,0,136.813,23.19Zm-.265,9.134c-.794,0-1.986-.4-1.986-1.456,0-1.324,1.456-1.721,2.648-1.721a5.119,5.119,0,0,1,2.25.53A3.083,3.083,0,0,1,136.548,32.324Zm13.9-8.737-2.78,7.149h-.132l-2.912-7.149h-2.648l4.369,10.061-2.515,5.56h2.515L153.1,23.587h-2.648Zm-22.24,10.591h2.515V17.63h-2.515Z" transform="translate(13.309 5.537)" fill="#fff"/>
    <g id="Group_5" data-name="Group 5" transform="translate(13.238 9.462)">
      <path id="Path_32" data-name="Path 32" d="M10.53,7.5A2.588,2.588,0,0,0,10,9.353V38.61a2.619,2.619,0,0,0,.662,1.853l.132.132L27.21,24.18v-.265Z" transform="translate(-10 -7.033)" fill="url(#linear-gradient)"/>
      <path id="Path_33" data-name="Path 33" d="M28.328,27.053,22.9,21.625v-.4L28.328,15.8l.132.132,6.487,3.707c1.853,1.059,1.853,2.78,0,3.839Z" transform="translate(-5.823 -4.345)" fill="url(#linear-gradient-2)"/>
      <path id="Path_34" data-name="Path 34" d="M32.508,25.56,26.948,20,10.4,36.548c.662.662,1.589.662,2.78.132L32.508,25.56" transform="translate(-9.87 -2.985)" fill="url(#linear-gradient-3)"/>
      <path id="Path_35" data-name="Path 35" d="M32.508,18.594,13.18,7.606a2.146,2.146,0,0,0-2.78.132L26.948,24.154l5.56-5.56Z" transform="translate(-9.87 -7.139)" fill="url(#linear-gradient-4)"/>
      <path id="Path_36" data-name="Path 36" d="M32.376,24.1,13.18,34.955a2.165,2.165,0,0,1-2.648,0l-.132.132.132.132a2.165,2.165,0,0,0,2.648,0Z" transform="translate(-9.87 -1.657)" opacity="0.2"/>
      <path id="Path_37" data-name="Path 37" d="M10.53,36.283A2.588,2.588,0,0,1,10,34.43v.132a2.619,2.619,0,0,0,.662,1.853v-.132H10.53ZM39.124,21.721l-6.619,3.707.132.132,6.487-3.707A2.2,2.2,0,0,0,40.448,20C40.448,20.662,39.918,21.191,39.124,21.721Z" transform="translate(-10 -2.985)" opacity="0.12"/>
      <path id="Path_38" data-name="Path 38" d="M13.31,7.747,39.124,22.441c.794.53,1.324,1.059,1.324,1.721a2.2,2.2,0,0,0-1.324-1.853L13.31,7.614C11.456,6.555,10,7.349,10,9.468V9.6C10,7.614,11.456,6.688,13.31,7.747Z" transform="translate(-10 -7.147)" fill="#fff" opacity="0.25"/>
    </g>
  </g>
</svg>
