<svg xmlns="http://www.w3.org/2000/svg" xmlns:xlink="http://www.w3.org/1999/xlink" width="136.782" height="48.338" viewBox="0 0 136.782 48.338">
  <defs>
    <clipPath id="clip-path">
      <path id="Path_2400" data-name="Path 2400" d="M0,53.786V25.64L23.753,7.1,46.835,25.343V53.786h-30.6V32.714l7.52-5.659V45.521H38.719V29.438L23.753,17.673,8.712,29.587v24.2Z" transform="translate(0 -7.1)"/>
    </clipPath>
    <linearGradient id="linear-gradient" x1="-0.287" y1="1.838" x2="0.995" y2="-0.549" gradientUnits="objectBoundingBox">
      <stop offset="0" stop-color="#00dbb3"/>
      <stop offset="0.215" stop-color="#00cff0"/>
      <stop offset="0.472" stop-color="#4d8eff"/>
      <stop offset="0.734" stop-color="#ff0de5"/>
      <stop offset="1" stop-color="#ff4772"/>
    </linearGradient>
    <linearGradient id="linear-gradient-2" x1="0.022" y1="1.469" x2="0.883" y2="-0.301" xlink:href="#linear-gradient"/>
    <linearGradient id="linear-gradient-3" x1="-6.088" y1="4.968" x2="1.767" y2="-0.36" xlink:href="#linear-gradient"/>
    <linearGradient id="linear-gradient-4" x1="-2.759" y1="2.426" x2="1.27" y2="0.059" xlink:href="#linear-gradient"/>
    <linearGradient id="linear-gradient-5" x1="-0.676" y1="1.607" x2="0.952" y2="0.032" xlink:href="#linear-gradient"/>
    <linearGradient id="linear-gradient-6" x1="-11.327" y1="9.758" x2="-0.341" y2="1.158" xlink:href="#linear-gradient"/>
    <linearGradient id="linear-gradient-7" x1="-1.897" y1="1.744" x2="1.061" y2="0.223" xlink:href="#linear-gradient"/>
    <linearGradient id="linear-gradient-8" x1="-0.147" y1="2.213" x2="1.413" y2="-2.036" xlink:href="#linear-gradient"/>
    <linearGradient id="linear-gradient-9" x1="-20.671" y1="7.543" x2="-0.355" y2="0.784" xlink:href="#linear-gradient"/>
    <linearGradient id="linear-gradient-10" x1="-1.841" y1="2.7" x2="1.174" y2="-0.038" xlink:href="#linear-gradient"/>
    <linearGradient id="linear-gradient-11" x1="-0.125" y1="2.787" x2="1.368" y2="-2.784" xlink:href="#linear-gradient"/>
    <linearGradient id="linear-gradient-12" x1="-0.337" y1="1.904" x2="4.203" y2="-5.692" xlink:href="#linear-gradient"/>
    <linearGradient id="linear-gradient-13" x1="-3.041" y1="2.266" x2="0.751" y2="0.355" xlink:href="#linear-gradient"/>
    <linearGradient id="linear-gradient-14" x1="-2.954" y1="2.431" x2="1.08" y2="0.18" xlink:href="#linear-gradient"/>
    <linearGradient id="linear-gradient-15" x1="0.159" y1="1.606" x2="0.888" y2="-0.975" xlink:href="#linear-gradient"/>
    <linearGradient id="linear-gradient-16" x1="-2.882" y1="6.525" x2="2.12" y2="-2.413" xlink:href="#linear-gradient"/>
    <linearGradient id="linear-gradient-17" x1="0.04" y1="2.7" x2="1.346" y2="-3.573" xlink:href="#linear-gradient"/>
    <linearGradient id="linear-gradient-18" x1="0.177" y1="1.289" x2="4.41" y2="-9.025" xlink:href="#linear-gradient"/>
    <linearGradient id="linear-gradient-19" x1="0.233" y1="1.899" x2="1.066" y2="-2.732" xlink:href="#linear-gradient"/>
    <linearGradient id="linear-gradient-20" x1="-0.018" y1="2.454" x2="1.518" y2="-3.354" xlink:href="#linear-gradient"/>
    <linearGradient id="linear-gradient-21" x1="0.291" y1="1.537" x2="4.181" y2="-17.921" xlink:href="#linear-gradient"/>
    <linearGradient id="linear-gradient-22" x1="-0.614" y1="3.751" x2="3.498" y2="-8.31" xlink:href="#linear-gradient"/>
    <linearGradient id="linear-gradient-23" x1="-0.017" y1="2.508" x2="4.52" y2="-15.146" xlink:href="#linear-gradient"/>
  </defs>
  <g id="Group_3311" data-name="Group 3311" transform="translate(0 -7.1)">
    <g id="Group_3305" data-name="Group 3305" transform="translate(0 7.1)">
      <g id="Fingerprint_icon_7_1_" clip-path="url(#clip-path)">
        <path id="Path_2377" data-name="Path 2377" d="M7.818,34.343a17.187,17.187,0,0,0,25.837-4.691.817.817,0,0,0-1.415-.819A15.643,15.643,0,0,1,8.786,33a5.378,5.378,0,0,1,1.489-9.158.851.851,0,0,0-.67-1.564A7.148,7.148,0,0,0,7.818,34.343Z" transform="translate(-1.34 -10.963)" fill="url(#linear-gradient)"/>
        <path id="Path_2378" data-name="Path 2378" d="M1.24,41.556a25.435,25.435,0,0,0,41.1-14.892.832.832,0,1,0-1.638-.3c-3.351,17.8-24.572,25.316-38.5,13.924-.3-.3-.6-.521-.894-.819a.9.9,0,0,0-1.191,0,.9.9,0,0,0,0,1.191C.868,41.258,1.166,41.481,1.24,41.556Z" transform="translate(0.026 -11.847)" fill="url(#linear-gradient-2)"/>
        <path id="Path_2379" data-name="Path 2379" d="M33.16,18.136a.884.884,0,0,0,.745-.894,8.946,8.946,0,0,0-3.276-6.106.849.849,0,1,0-1.042,1.34,7.418,7.418,0,0,1,2.681,4.989A.742.742,0,0,0,33.16,18.136Z" transform="translate(-7.471 -8.084)" fill="url(#linear-gradient-3)"/>
        <path id="Path_2380" data-name="Path 2380" d="M21.556,15.909a.849.849,0,0,0,1.042-1.34,7.358,7.358,0,0,1,3.946-13.03A.884.884,0,0,0,27.29.645.884.884,0,0,0,26.4-.1C18.5.719,15.227,10.771,21.556,15.909Z" transform="translate(-4.654 -5.261)" fill="url(#linear-gradient-4)"/>
        <path id="Path_2381" data-name="Path 2381" d="M13.046,10.244a.751.751,0,0,0-.745.894,13.058,13.058,0,0,0,4.765,9.531,4.919,4.919,0,1,0,6.255-7.595,3.268,3.268,0,0,1,2.085-5.808,3.322,3.322,0,0,1,2.085.745A11.479,11.479,0,1,1,12.9,25.731a1.213,1.213,0,0,1,.745-2.159c.521,0,.894.372.745.3a9.079,9.079,0,0,0,14.073-3.425.8.8,0,1,0-1.489-.6A7.412,7.412,0,0,1,15.5,22.678a2.835,2.835,0,0,0-4.021.372,2.917,2.917,0,0,0,.372,4.021,13.286,13.286,0,0,0,8.339,2.978,13.077,13.077,0,0,0,13.1-13.1,12.867,12.867,0,0,0-4.84-10.126A4.919,4.919,0,1,0,22.2,14.413a3.284,3.284,0,0,1,.447,4.616,3.243,3.243,0,0,1-4.616.447,11.377,11.377,0,0,1-4.17-8.339A.8.8,0,0,0,13.046,10.244Z" transform="translate(-2.77 -6.744)" fill="url(#linear-gradient-5)"/>
        <path id="Path_2382" data-name="Path 2382" d="M47.417,7.507A.846.846,0,0,0,47.79,6.39,18.953,18.953,0,0,0,46,3.486a.76.76,0,0,0-1.117-.149.76.76,0,0,0-.149,1.117,25.9,25.9,0,0,1,1.638,2.681A.711.711,0,0,0,47.417,7.507Z" transform="translate(-11.379 -6.092)" fill="url(#linear-gradient-6)"/>
        <path id="Path_2383" data-name="Path 2383" d="M36.681,37.188a21.46,21.46,0,0,0,10.35-24.5.849.849,0,1,0-1.638.447,19.776,19.776,0,0,1-9.531,22.636.841.841,0,0,0-.3,1.117A.821.821,0,0,0,36.681,37.188Z" transform="translate(-9.057 -8.372)" fill="url(#linear-gradient-7)"/>
        <path id="Path_2384" data-name="Path 2384" d="M1.328,38.528a21.394,21.394,0,0,0,22.636,6.7.824.824,0,0,0-.521-1.564,19.651,19.651,0,0,1-20.923-6.18A.746.746,0,0,0,1.4,37.337.856.856,0,0,0,1.328,38.528Z" transform="translate(-0.285 -14.776)" fill="url(#linear-gradient-8)"/>
        <path id="Path_2385" data-name="Path 2385" d="M56.064,20.455a.826.826,0,0,0,.819-.819,29.737,29.737,0,0,0-.223-4.17.79.79,0,0,0-1.564.223,22.958,22.958,0,0,1,.223,3.946A.724.724,0,0,0,56.064,20.455Z" transform="translate(-14.069 -9.063)" fill="url(#linear-gradient-9)"/>
        <path id="Path_2386" data-name="Path 2386" d="M50.07,49.161a.787.787,0,0,0,1.117.372c6.329-2.9,8.414-6.329,10.871-12.807a.8.8,0,0,0-1.489-.6c-2.308,6.106-4.1,9.233-9.978,11.913A.8.8,0,0,0,50.07,49.161Z" transform="translate(-12.766 -14.389)" fill="url(#linear-gradient-10)"/>
        <path id="Path_2387" data-name="Path 2387" d="M36.929,51.291c-2.606,3.276-9.9,4.616-14.073,4.914a28.265,28.265,0,0,1-7.893-.6.8.8,0,1,0-.372,1.564,29,29,0,0,0,8.414.6c4.84-.3,12.211-1.787,15.264-5.51a.839.839,0,0,0-.149-1.191A1.03,1.03,0,0,0,36.929,51.291Z" transform="translate(-3.571 -18.306)" fill="url(#linear-gradient-11)"/>
        <path id="Path_2388" data-name="Path 2388" d="M7.013,55.986a.8.8,0,0,0,.6-1.489,25.334,25.334,0,0,1-6.255-3.351.759.759,0,0,0-1.117.223.746.746,0,0,0,.149,1.117A24.57,24.57,0,0,0,7.013,55.986Z" transform="translate(-0.014 -18.309)" fill="url(#linear-gradient-12)"/>
        <path id="Path_2389" data-name="Path 2389" d="M41.574,20.836a.847.847,0,0,0,1.042-.6A17.178,17.178,0,0,0,36.957,2.221,9.291,9.291,0,0,0,34.723.881a.769.769,0,0,0-1.042.447.769.769,0,0,0,.447,1.042,6.231,6.231,0,0,1,1.787,1.117,15.628,15.628,0,0,1,5.138,16.307A.8.8,0,0,0,41.574,20.836Z" transform="translate(-8.588 -5.497)" fill="url(#linear-gradient-13)"/>
        <path id="Path_2390" data-name="Path 2390" d="M50.537,41.207a.8.8,0,0,0,1.266.968c.968-1.191,1.415-1.787,1.713-2.159A28.874,28.874,0,0,0,59.4,26.464a.832.832,0,1,0-1.638-.3,27.689,27.689,0,0,1-5.584,12.807A14.741,14.741,0,0,1,50.537,41.207Z" transform="translate(-12.861 -11.796)" fill="url(#linear-gradient-14)"/>
        <path id="Path_2391" data-name="Path 2391" d="M50.279,46.184a.83.83,0,0,0-1.042.447c-1.415,3.872-4.244,5.733-8.116,7.148-2.457.894-5.361,1.638-8.712,2.532-7.371,1.936-11.467,3.8-19.359,2.681A31.273,31.273,0,0,1,1.881,55.119a.841.841,0,0,0-1.117.3.841.841,0,0,0,.3,1.117,34.345,34.345,0,0,0,11.69,4.1c8.265,1.191,12.733-.819,20.03-2.681,7.967-2.085,15.264-3.574,17.945-10.648A.816.816,0,0,0,50.279,46.184Z" transform="translate(-0.168 -17.07)" fill="url(#linear-gradient-15)"/>
        <path id="Path_2392" data-name="Path 2392" d="M64.267,58.55a17.812,17.812,0,0,1-5.361,2.532.824.824,0,1,0,.521,1.564,18.429,18.429,0,0,0,5.882-2.755.76.76,0,0,0,.149-1.117A.872.872,0,0,0,64.267,58.55Z" transform="translate(-14.9 -20.203)" fill="url(#linear-gradient-16)"/>
        <path id="Path_2393" data-name="Path 2393" d="M44.923,64.95a.8.8,0,0,0-.372-1.564,23.98,23.98,0,0,1-2.9.67C31.893,66.291,26.9,68.375,18.49,67.705a.822.822,0,1,0-.149,1.638C26.606,69.939,31.372,68.152,44.923,64.95Z" transform="translate(-4.492 -21.466)" fill="url(#linear-gradient-17)"/>
        <path id="Path_2394" data-name="Path 2394" d="M10.774,67.666a31.981,31.981,0,0,1-6.85-2.085.8.8,0,1,0-.6,1.489,42.071,42.071,0,0,0,7.148,2.159.841.841,0,0,0,.968-.67A.808.808,0,0,0,10.774,67.666Z" transform="translate(-0.722 -22.022)" fill="url(#linear-gradient-18)"/>
        <path id="Path_2395" data-name="Path 2395" d="M6.987,71.789a.745.745,0,0,0,.6.968c11.243,2.9,19.955.968,30.9-1.787a93.829,93.829,0,0,0,11.839-3.5.8.8,0,1,0-.6-1.489,95.425,95.425,0,0,1-11.616,3.425c-10.8,2.681-19.21,4.616-30.082,1.787A.847.847,0,0,0,6.987,71.789Z" transform="translate(-1.775 -22.124)" fill="url(#linear-gradient-19)"/>
        <path id="Path_2396" data-name="Path 2396" d="M53.453,73.905a.8.8,0,0,0-1.042-.521A128.518,128.518,0,0,1,30.445,78.3a.822.822,0,0,0,.149,1.638,121.528,121.528,0,0,0,22.338-4.989A.8.8,0,0,0,53.453,73.905Z" transform="translate(-7.586 -24.018)" fill="url(#linear-gradient-20)"/>
        <path id="Path_2397" data-name="Path 2397" d="M22.285,80.195a51.026,51.026,0,0,1-7.595-.3.822.822,0,1,0-.149,1.638,63.8,63.8,0,0,0,7.818.3.826.826,0,0,0,.819-.819A.952.952,0,0,0,22.285,80.195Z" transform="translate(-3.521 -25.69)" fill="url(#linear-gradient-21)"/>
        <path id="Path_2398" data-name="Path 2398" d="M48.657,82.882a.745.745,0,0,0-.968-.6c-2.457.6-4.84,1.117-7.223,1.489a.832.832,0,0,0,.3,1.638q3.686-.67,7.371-1.564A.811.811,0,0,0,48.657,82.882Z" transform="translate(-10.161 -26.293)" fill="url(#linear-gradient-22)"/>
        <path id="Path_2399" data-name="Path 2399" d="M26.5,86.436a.826.826,0,0,0,.819.819c-.074-.074,1.713.074,6.552-.6a.79.79,0,1,0-.223-1.564c-2.234.3-4.393.521-6.4.6C26.8,85.617,26.5,85.99,26.5,86.436Z" transform="translate(-6.768 -27.018)" fill="url(#linear-gradient-23)"/>
      </g>
    </g>
    <g id="Group_3308" data-name="Group 3308" transform="translate(50.41 21.749)">
      <path id="Path_2404" data-name="Path 2404" d="M1.694-4.529A1.673,1.673,0,0,0,3.519-6.247c0-.821-.452-1.526-1.756-1.526H.567v5.721H.95V-4.529Zm.069-2.914c1.081,0,1.357.583,1.365,1.2A1.332,1.332,0,0,1,1.763-4.859H.95V-7.443ZM4.447-4.583c0-.606.475-1.488,1.235-1.488a.347.347,0,0,1,.123.023v-.406H5.659a1.529,1.529,0,0,0-1.212.836v-.836h-.36v4.4h.36ZM8.512-6.677a2.413,2.413,0,0,0-2.4,2.423,2.413,2.413,0,0,0,2.4,2.424,2.413,2.413,0,0,0,2.4-2.424A2.413,2.413,0,0,0,8.512-6.677Zm0,.33a2.055,2.055,0,0,1,2.017,2.094A2.055,2.055,0,0,1,8.512-2.159,2.055,2.055,0,0,1,6.495-4.253,2.055,2.055,0,0,1,8.512-6.347ZM13.888-1.83a2.41,2.41,0,0,0,2.385-2.424,2.41,2.41,0,0,0-2.385-2.423A2.355,2.355,0,0,0,11.894-5.5v-.959h-.36V-.365h.36V-3.018A2.311,2.311,0,0,0,13.888-1.83Zm-2-2.424a2.053,2.053,0,0,1,2-2.094,2.053,2.053,0,0,1,2,2.094,2.053,2.053,0,0,1-2,2.094A2.053,2.053,0,0,1,11.886-4.253Zm9.288,1.542-.23-.276a2.6,2.6,0,0,1-1.825.828,2.064,2.064,0,0,1-2.017-2.1v-.107H21.32v-.038a2.322,2.322,0,0,0-2.278-2.27,2.362,2.362,0,0,0-2.324,2.423,2.394,2.394,0,0,0,2.4,2.424A2.742,2.742,0,0,0,21.174-2.712ZM19.042-6.347A1.983,1.983,0,0,1,20.913-4.69H17.14A1.984,1.984,0,0,1,19.042-6.347Zm3.229,1.764c0-.606.475-1.488,1.235-1.488a.347.347,0,0,1,.123.023v-.406h-.146a1.529,1.529,0,0,0-1.212.836v-.836h-.36v4.4h.36Zm3.405-1.549v-.322h-.652v-1.3l-.36.23v1.066h-.652v.322h.652v4.08h.36v-4.08Zm4.218-.322h-.368L27.977-2.389l-1.8-4.065h-.4l2.032,4.5L27.2-.365h.353Zm1.718,4.4H32V-4.913h2.278v-.33H32v-2.2H34.48v-.33H31.612Zm3.934-5.982h-.391v.8h.391Zm-.015,1.58h-.36v4.4h.36Zm1.181,1.572a1.349,1.349,0,0,1,1.35-1.35,1.239,1.239,0,0,1,1.319,1.426v2.753h.36V-4.9a1.491,1.491,0,0,0-1.588-1.657,1.78,1.78,0,0,0-1.442.713v-.606h-.36v4.4h.36Zm8.122,2.155V-6.454h-.36V-5.7a2.251,2.251,0,0,0-1.787-.974,2.209,2.209,0,0,0-2.308,2.193A2.2,2.2,0,0,0,42.686-2.29a2.352,2.352,0,0,0,1.787-.974v.537c0,1.6-.9,2-1.833,2a7.49,7.49,0,0,1-1.473-.169v.314a6.7,6.7,0,0,0,1.473.169C43.737-.4,44.834-.863,44.834-2.727Zm-2.209.107a1.874,1.874,0,0,1-1.879-1.864,1.874,1.874,0,0,1,1.879-1.864,1.859,1.859,0,0,1,1.856,1.864A1.859,1.859,0,0,1,42.625-2.619Zm7.286-.092-.23-.276a2.6,2.6,0,0,1-1.825.828,2.064,2.064,0,0,1-2.017-2.1v-.107h4.218v-.038a2.322,2.322,0,0,0-2.278-2.27,2.362,2.362,0,0,0-2.324,2.423,2.394,2.394,0,0,0,2.4,2.424A2.742,2.742,0,0,0,49.911-2.712ZM47.779-6.347A1.983,1.983,0,0,1,49.65-4.69H45.877A1.984,1.984,0,0,1,47.779-6.347Zm3.229,1.764c0-.606.476-1.488,1.235-1.488a.347.347,0,0,1,.123.023v-.406h-.146a1.529,1.529,0,0,0-1.212.836v-.836h-.36v4.4h.36ZM55.394-1.83a2.41,2.41,0,0,0,2.385-2.424,2.41,2.41,0,0,0-2.385-2.423A2.355,2.355,0,0,0,53.4-5.5v-.959h-.36V-.365h.36V-3.018A2.311,2.311,0,0,0,55.394-1.83Zm-2-2.424a2.053,2.053,0,0,1,2-2.094,2.053,2.053,0,0,1,2,2.094,2.053,2.053,0,0,1-2,2.094A2.053,2.053,0,0,1,53.393-4.253Zm5.369-.33c0-.606.475-1.488,1.235-1.488a.347.347,0,0,1,.123.023v-.406h-.146a1.529,1.529,0,0,0-1.212.836v-.836H58.4v4.4h.36Zm2.431-3.451H60.8v.8h.391Zm-.015,1.58h-.36v4.4h.36Zm1.181,1.572a1.348,1.348,0,0,1,1.35-1.35,1.239,1.239,0,0,1,1.319,1.426v2.753h.36V-4.9A1.491,1.491,0,0,0,63.8-6.561a1.78,1.78,0,0,0-1.442.713v-.606H62v4.4h.36Zm5.184-1.25v-.322h-.652v-1.3l-.36.23v1.066h-.652v.322h.652v4.08h.36v-4.08Z" transform="translate(1.448 34.053)" fill="#150329"/>
      <g id="Group_3307" data-name="Group 3307" transform="translate(0)">
        <path id="Path_2405" data-name="Path 2405" d="M11.4-29.659a9.046,9.046,0,0,1,7.052,2.732q2.483,2.732,2.483,7.764,0,5.5-2.715,8.526a9.739,9.739,0,0,1-7.648,3.03,8.893,8.893,0,0,1-7.019-2.8q-2.483-2.8-2.483-7.93,0-5.43,2.7-8.377T11.4-29.659Zm-.464,4.3a4.447,4.447,0,0,0-2.483.613,3.535,3.535,0,0,0-1.357,1.987,12.9,12.9,0,0,0-.43,3.725,17.838,17.838,0,0,0,.43,4.42,4.036,4.036,0,0,0,1.374,2.3,4.239,4.239,0,0,0,2.566.7,4.515,4.515,0,0,0,2.516-.613,3.471,3.471,0,0,0,1.341-2,13.881,13.881,0,0,0,.414-3.808,17.458,17.458,0,0,0-.43-4.37,3.984,3.984,0,0,0-1.357-2.268A4.3,4.3,0,0,0,10.934-25.355Zm16.621,4.4,1.49,7.748h.265l1.887-7.45.563-2.814h5.066l.3,2.516L38.713-13.2h.3l1.788-7.45.563-2.814h4.37l-4.7,15.5H36.1l-1.953-9.006h-.364L31.495-7.973H26.363l-3.907-15.4,4.735-.2ZM56.724-17.21q.066-2.285-1.854-2.285a4.364,4.364,0,0,0-2.516.993v3.675l.232,6.854H47.354l.232-6.324-.2-8.84,5-.4v2.285h.2a10.657,10.657,0,0,1,3.973-2.417,5.6,5.6,0,0,1,3.791,1.142,4.009,4.009,0,0,1,1.275,3.261l-.132,4.437.2,6.854H56.459Zm13.442,2.384L70.4-7.973H65.167l.265-6.357-.2-16.522,5.2-.364Z" transform="translate(-1.067 31.215)" fill="#150329"/>
        <g id="Group_3306" data-name="Group 3306" transform="translate(70.511 7.465)">
          <path id="Path_2401" data-name="Path 2401" d="M168.357,39.481l2.308,7.744h.3l2.234-7.3.6-2.978h4.468l-4.84,14.222a21.775,21.775,0,0,1-1.787,3.723,11.256,11.256,0,0,1-6.552,5.957h-.372a11.379,11.379,0,0,1-2.308-3.127l.223-.521a8.857,8.857,0,0,0,5.882-4.765l-5.659-15.413,4.989-.223Z" transform="translate(-162.4 -36.8)" fill="#150329"/>
        </g>
      </g>
    </g>
  </g>
</svg>
