<?xml version="1.0" encoding="UTF-8"?>
<svg width="34px" height="23px" viewBox="0 0 34 23" version="1.1" xmlns="http://www.w3.org/2000/svg" xmlns:xlink="http://www.w3.org/1999/xlink">
    <!-- Generator: Sketch 45.2 (43514) - http://www.bohemiancoding.com/sketch -->
    <title>Messages</title>
    <desc>Created with Sketch.</desc>
    <defs></defs>
    <g id="Symbols" stroke="none" stroke-width="1" fill="none" fill-rule="evenodd">
        <g id="Mobile---Menu" transform="translate(-171.000000, -13.000000)" stroke-width="0.700000048" stroke="#162441" fill="#162441" fill-rule="nonzero">
            <g id="Menu">
                <g id="Messages" transform="translate(171.000000, 12.000000)">
                    <g id="Message-icon">
                        <g id="Syncitt_Iconography-06" transform="translate(0.353516, 0.870117)">
                            <path d="M29.0460509,6.06413788 C30.5917012,7.55034009 31.4885181,9.32019461 31.4885181,11.2208349 C31.4885181,16.4743474 24.6350028,20.7325291 16.179786,20.7325291 C13.4460544,20.752388 10.7314192,20.2758737 8.16788223,19.3261572 L8.16788223,19.3261572 C6.81925988,20.3894287 5.74919429,20.9159689 4.98486172,21.175842 C4.94220964,21.1904163 4.8974508,21.1978761 4.85237741,21.1979227 C4.70048225,21.1960184 4.56247684,21.1091203 4.49511581,20.972965 C4.42775478,20.8368097 4.44241067,20.6743844 4.53305625,20.5524863 C5.07647022,19.8146407 5.40615011,18.9413709 5.48592418,18.0284903 C2.64260703,16.3010987 0.877848064,13.8926019 0.877848064,11.2344231 C0.877848064,5.98091055 7.73136341,1.7227289 16.1865801,1.7227289 C19.4681146,1.7227289 22.5084597,2.36476825 25.0001839,3.45691456 L25.6795906,2.83186038 C22.94328,1.55287722 19.6464589,0.859882355 16.1865801,0.859882355 C11.9402881,0.859882355 7.93858246,1.89427909 4.91352402,3.77453721 C1.76277532,5.73122858 0.0285896569,8.37581926 0.0285896569,11.2208349 C0.0285896569,13.9639396 1.63538656,16.5134133 4.5687251,18.4463255 C4.45612725,19.0207424 4.21772314,19.5630973 3.87063469,20.0344387 C3.57881076,20.4087078 3.52731044,20.9171083 3.73815038,21.3422966 C4.01210137,21.911978 4.66863008,22.1869906 5.26681551,21.9826375 C6.36782792,21.5784098 7.3992667,21.0053883 8.32414578,20.2841206 C10.853791,21.1560736 13.5126092,21.5942331 16.1882786,21.580089 C20.4345707,21.580089 24.4379748,20.5456922 27.4613347,18.6654341 C30.6120834,16.7087428 32.3462691,14.0641521 32.3462691,11.2191364 C32.3462691,9.22677618 31.4970107,7.33292994 29.9021034,5.70405231 L29.0460509,6.06413788 Z" id="Shape"></path>
                        </g>
                    </g>
                </g>
            </g>
        </g>
    </g>
</svg>