<svg xmlns="http://www.w3.org/2000/svg" xmlns:xlink="http://www.w3.org/1999/xlink" width="129.21" height="45.662" viewBox="0 0 129.21 45.662">
  <defs>
    <clipPath id="clip-path">
      <path id="Path_2400" data-name="Path 2400" d="M0,51.2V24.614L22.438,7.1l21.8,17.233V51.2H15.334V31.3l7.1-5.346V43.394H36.575V28.2L22.438,17.088,8.229,28.342V51.2Z" transform="translate(0 -7.1)" fill="#fff"/>
    </clipPath>
  </defs>
  <g id="Group_3311" data-name="Group 3311" transform="translate(0 -7.1)">
    <g id="Group_3305" data-name="Group 3305" transform="translate(0 7.1)">
      <g id="Fingerprint_icon_7_1_" clip-path="url(#clip-path)">
        <path id="Path_2377" data-name="Path 2377" d="M7.676,33.672a16.236,16.236,0,0,0,24.407-4.431.772.772,0,0,0-1.336-.774A14.777,14.777,0,0,1,8.59,32.406,5.08,5.08,0,0,1,10,23.755a.8.8,0,1,0-.633-1.477A6.752,6.752,0,0,0,7.676,33.672Z" transform="translate(-1.556 -11.586)" fill="#fff"/>
        <path id="Path_2378" data-name="Path 2378" d="M1.166,40.677A24.027,24.027,0,0,0,39.992,26.61a.786.786,0,1,0-1.547-.281C35.28,43.139,15.234,50.243,2.08,39.482c-.281-.281-.563-.492-.844-.774a.855.855,0,0,0-1.125,0,.855.855,0,0,0,0,1.125C.814,40.4,1.1,40.607,1.166,40.677Z" transform="translate(0.03 -12.613)" fill="#fff"/>
        <path id="Path_2379" data-name="Path 2379" d="M32.944,17.738a.835.835,0,0,0,.7-.844,8.451,8.451,0,0,0-3.095-5.768.8.8,0,1,0-.985,1.266A7.008,7.008,0,0,1,32.1,17.105.7.7,0,0,0,32.944,17.738Z" transform="translate(-8.677 -8.243)" fill="#fff"/>
        <path id="Path_2380" data-name="Path 2380" d="M21.372,15.023a.8.8,0,0,0,.985-1.266A6.951,6.951,0,0,1,26.084,1.447a.835.835,0,0,0,.7-.844.835.835,0,0,0-.844-.7C18.488.674,15.393,10.169,21.372,15.023Z" transform="translate(-5.405 -4.964)" fill="#fff"/>
        <path id="Path_2381" data-name="Path 2381" d="M12.924,9.993a.71.71,0,0,0-.7.844,12.335,12.335,0,0,0,4.5,9,4.647,4.647,0,0,0,5.908-7.174A3.087,3.087,0,0,1,24.6,7.179a3.138,3.138,0,0,1,1.969.7,10.843,10.843,0,0,1-13.786,16.74,1.146,1.146,0,0,1,.7-2.04c.492,0,.844.352.7.281a8.576,8.576,0,0,0,13.294-3.236.758.758,0,1,0-1.407-.563,7,7,0,0,1-10.832,2.673,2.679,2.679,0,0,0-3.8.352,2.756,2.756,0,0,0,.352,3.8A12.551,12.551,0,0,0,19.676,28.7,12.353,12.353,0,0,0,32.056,16.323a12.154,12.154,0,0,0-4.572-9.566,4.647,4.647,0,0,0-5.908,7.174A3.1,3.1,0,0,1,22,18.292a3.063,3.063,0,0,1-4.361.422A10.747,10.747,0,0,1,13.7,10.837.759.759,0,0,0,12.924,9.993Z" transform="translate(-3.217 -6.687)" fill="#fff"/>
        <path id="Path_2382" data-name="Path 2382" d="M47.259,7.266a.8.8,0,0,0,.352-1.055,17.9,17.9,0,0,0-1.688-2.743.718.718,0,0,0-1.055-.141.718.718,0,0,0-.141,1.055,24.469,24.469,0,0,1,1.547,2.532A.671.671,0,0,0,47.259,7.266Z" transform="translate(-13.216 -5.929)" fill="#fff"/>
        <path id="Path_2383" data-name="Path 2383" d="M36.613,35.8A20.272,20.272,0,0,0,46.39,12.657a.8.8,0,0,0-1.547.422,18.681,18.681,0,0,1-9,21.383.794.794,0,0,0-.281,1.055A.776.776,0,0,0,36.613,35.8Z" transform="translate(-10.518 -8.578)" fill="#fff"/>
        <path id="Path_2384" data-name="Path 2384" d="M1.316,38.452A20.209,20.209,0,0,0,22.7,44.783a.778.778,0,0,0-.492-1.477A18.563,18.563,0,0,1,2.441,37.467a.705.705,0,0,0-1.055-.141A.808.808,0,0,0,1.316,38.452Z" transform="translate(-0.331 -16.015)" fill="#fff"/>
        <path id="Path_2385" data-name="Path 2385" d="M56.01,20.141a.781.781,0,0,0,.774-.774,28.092,28.092,0,0,0-.211-3.939.746.746,0,0,0-1.477.211,21.687,21.687,0,0,1,.211,3.728A.684.684,0,0,0,56.01,20.141Z" transform="translate(-16.34 -9.379)" fill="#fff"/>
        <path id="Path_2386" data-name="Path 2386" d="M50.066,48.412a.743.743,0,0,0,1.055.352c5.979-2.743,7.948-5.979,10.269-12.1a.758.758,0,1,0-1.407-.563c-2.18,5.768-3.869,8.722-9.425,11.254A.756.756,0,0,0,50.066,48.412Z" transform="translate(-14.827 -15.565)" fill="#fff"/>
        <path id="Path_2387" data-name="Path 2387" d="M35.658,51.274C33.2,54.369,26.3,55.635,22.365,55.916a26.7,26.7,0,0,1-7.456-.563.759.759,0,1,0-.352,1.477,27.391,27.391,0,0,0,7.948.563c4.572-.281,11.535-1.688,14.419-5.2a.793.793,0,0,0-.141-1.125A.973.973,0,0,0,35.658,51.274Z" transform="translate(-4.147 -20.115)" fill="#fff"/>
        <path id="Path_2388" data-name="Path 2388" d="M6.627,55.709A.758.758,0,0,0,7.19,54.3a23.931,23.931,0,0,1-5.908-3.165.717.717,0,0,0-1.055.211A.705.705,0,0,0,.367,52.4,23.21,23.21,0,0,0,6.627,55.709Z" transform="translate(-0.016 -20.118)" fill="#fff"/>
        <path id="Path_2389" data-name="Path 2389" d="M41.134,19.728a.8.8,0,0,0,.985-.563A16.227,16.227,0,0,0,36.773,2.144,8.776,8.776,0,0,0,34.662.878a.727.727,0,0,0-.985.422.727.727,0,0,0,.422.985A5.886,5.886,0,0,1,35.788,3.34a14.763,14.763,0,0,1,4.853,15.4A.76.76,0,0,0,41.134,19.728Z" transform="translate(-9.974 -5.239)" fill="#fff"/>
        <path id="Path_2390" data-name="Path 2390" d="M50.527,40.337a.753.753,0,0,0,1.2.914c.914-1.125,1.336-1.688,1.618-2.04A27.276,27.276,0,0,0,58.9,26.41a.786.786,0,1,0-1.547-.281,26.156,26.156,0,0,1-5.275,12.1A13.924,13.924,0,0,1,50.527,40.337Z" transform="translate(-14.936 -12.553)" fill="#fff"/>
        <path id="Path_2391" data-name="Path 2391" d="M47.533,46.181a.784.784,0,0,0-.985.422c-1.336,3.658-4.009,5.416-7.667,6.752-2.321.844-5.064,1.547-8.229,2.391-6.963,1.829-10.832,3.587-18.288,2.532A29.542,29.542,0,0,1,1.813,54.622.794.794,0,0,0,.758,54.9a.794.794,0,0,0,.281,1.055,32.443,32.443,0,0,0,11.043,3.869C19.89,60.952,24.11,59.053,31,57.295c7.526-1.969,14.419-3.376,16.951-10.058A.771.771,0,0,0,47.533,46.181Z" transform="translate(-0.195 -18.68)" fill="#fff"/>
        <path id="Path_2392" data-name="Path 2392" d="M63.938,58.542a16.826,16.826,0,0,1-5.064,2.391.778.778,0,1,0,.492,1.477,17.408,17.408,0,0,0,5.557-2.6.718.718,0,0,0,.141-1.055A.824.824,0,0,0,63.938,58.542Z" transform="translate(-17.305 -22.318)" fill="#fff"/>
        <path id="Path_2393" data-name="Path 2393" d="M43.41,64.862a.759.759,0,0,0-.352-1.477,22.653,22.653,0,0,1-2.743.633C31.1,66.128,26.388,68.1,18.44,67.464a.777.777,0,1,0-.141,1.547C26.107,69.574,30.609,67.886,43.41,64.862Z" transform="translate(-5.217 -23.785)" fill="#fff"/>
        <path id="Path_2394" data-name="Path 2394" d="M10.334,67.547a30.21,30.21,0,0,1-6.471-1.969A.758.758,0,1,0,3.3,66.984a39.741,39.741,0,0,0,6.752,2.04.8.8,0,0,0,.914-.633A.764.764,0,0,0,10.334,67.547Z" transform="translate(-0.838 -24.43)" fill="#fff"/>
        <path id="Path_2395" data-name="Path 2395" d="M6.985,71.464a.7.7,0,0,0,.563.914c10.621,2.743,18.85.914,29.19-1.688a88.633,88.633,0,0,0,11.184-3.306.758.758,0,0,0-.563-1.407,90.142,90.142,0,0,1-10.973,3.236c-10.2,2.532-18.147,4.361-28.416,1.688A.8.8,0,0,0,6.985,71.464Z" transform="translate(-2.061 -24.549)" fill="#fff"/>
        <path id="Path_2396" data-name="Path 2396" d="M52.138,73.874a.76.76,0,0,0-.985-.492A121.4,121.4,0,0,1,30.4,78.024a.777.777,0,0,0,.141,1.547,114.8,114.8,0,0,0,21.1-4.713A.76.76,0,0,0,52.138,73.874Z" transform="translate(-8.81 -26.748)" fill="#fff"/>
        <path id="Path_2397" data-name="Path 2397" d="M21.815,80.178A48.2,48.2,0,0,1,14.64,79.9a.777.777,0,1,0-.141,1.547,60.27,60.27,0,0,0,7.385.281.781.781,0,0,0,.774-.774A.9.9,0,0,0,21.815,80.178Z" transform="translate(-4.09 -28.691)" fill="#fff"/>
        <path id="Path_2398" data-name="Path 2398" d="M48.166,82.847a.7.7,0,0,0-.914-.563c-2.321.563-4.572,1.055-6.823,1.407a.786.786,0,0,0,.281,1.547q3.482-.633,6.963-1.477A.766.766,0,0,0,48.166,82.847Z" transform="translate(-11.801 -29.391)" fill="#fff"/>
        <path id="Path_2399" data-name="Path 2399" d="M26.5,86.362a.781.781,0,0,0,.774.774c-.07-.07,1.618.07,6.19-.563a.746.746,0,1,0-.211-1.477c-2.11.281-4.15.492-6.049.563C26.781,85.588,26.5,85.94,26.5,86.362Z" transform="translate(-7.861 -30.232)" fill="#fff"/>
      </g>
    </g>
    <g id="Group_3308" data-name="Group 3308" transform="translate(47.62 20.938)">
      <path id="Path_2404" data-name="Path 2404" d="M1.631-4.723A1.58,1.58,0,0,0,3.356-6.346c0-.775-.427-1.442-1.659-1.442H.567v5.4H.929v-2.34ZM1.7-7.476c1.022,0,1.282.551,1.29,1.13A1.258,1.258,0,0,1,1.7-5.035H.929V-7.476Zm2.536,2.7c0-.572.449-1.405,1.166-1.405a.328.328,0,0,1,.116.022v-.384H5.377a1.444,1.444,0,0,0-1.145.79v-.79H3.892v4.158h.341Zm3.84-1.978A2.28,2.28,0,0,0,5.8-4.462,2.28,2.28,0,0,0,8.072-2.173,2.28,2.28,0,0,0,10.34-4.462,2.28,2.28,0,0,0,8.072-6.752Zm0,.312A1.942,1.942,0,0,1,9.977-4.462,1.942,1.942,0,0,1,8.072-2.485,1.942,1.942,0,0,1,6.167-4.462,1.942,1.942,0,0,1,8.072-6.44Zm5.079,4.267A2.277,2.277,0,0,0,15.4-4.462a2.277,2.277,0,0,0-2.253-2.289,2.225,2.225,0,0,0-1.884,1.116v-.906h-.341V-.789h.341V-3.3A2.183,2.183,0,0,0,13.151-2.173ZM11.26-4.462A1.939,1.939,0,0,1,13.151-6.44a1.939,1.939,0,0,1,1.891,1.978,1.939,1.939,0,0,1-1.891,1.978A1.939,1.939,0,0,1,11.26-4.462Zm8.773,1.456-.217-.261a2.459,2.459,0,0,1-1.724.782A1.949,1.949,0,0,1,16.186-4.47v-.1h3.985v-.036a2.194,2.194,0,0,0-2.152-2.144,2.232,2.232,0,0,0-2.2,2.289,2.261,2.261,0,0,0,2.268,2.289A2.591,2.591,0,0,0,20.033-3.006ZM18.019-6.44a1.874,1.874,0,0,1,1.768,1.565H16.222A1.875,1.875,0,0,1,18.019-6.44Zm3.05,1.666c0-.572.449-1.405,1.166-1.405a.328.328,0,0,1,.116.022v-.384h-.138a1.444,1.444,0,0,0-1.145.79v-.79h-.341v4.158h.341Zm3.217-1.463v-.3H23.67V-7.766l-.341.217v1.007h-.616v.3h.616v3.854h.341V-6.237Zm3.985-.3h-.348L26.459-2.7l-1.7-3.84H24.38L26.3-2.289l-.572,1.5h.333Zm1.623,4.158h.362v-2.7h2.152V-5.4H30.255V-7.476H32.6v-.312h-2.71ZM33.61-8.034H33.24v.753h.369ZM33.6-6.542h-.341v4.158H33.6Zm1.116,1.485a1.274,1.274,0,0,1,1.275-1.275,1.17,1.17,0,0,1,1.246,1.348v2.6h.341v-2.7a1.408,1.408,0,0,0-1.5-1.565,1.681,1.681,0,0,0-1.362.674v-.572h-.34v4.158h.34Zm7.672,2.036V-6.542h-.341v.71a2.126,2.126,0,0,0-1.688-.92A2.087,2.087,0,0,0,38.174-4.68a2.082,2.082,0,0,0,2.181,2.072,2.222,2.222,0,0,0,1.688-.92v.507c0,1.507-.855,1.891-1.731,1.891a7.075,7.075,0,0,1-1.391-.159v.3a6.332,6.332,0,0,0,1.391.159C41.347-.825,42.383-1.26,42.383-3.021Zm-2.086.1a1.77,1.77,0,0,1-1.775-1.76A1.77,1.77,0,0,1,40.3-6.44,1.756,1.756,0,0,1,42.05-4.68,1.756,1.756,0,0,1,40.3-2.919Zm6.883-.087-.217-.261a2.459,2.459,0,0,1-1.724.782A1.949,1.949,0,0,1,43.332-4.47v-.1h3.985v-.036a2.194,2.194,0,0,0-2.152-2.144,2.232,2.232,0,0,0-2.2,2.289,2.261,2.261,0,0,0,2.268,2.289A2.591,2.591,0,0,0,47.179-3.006ZM45.165-6.44a1.874,1.874,0,0,1,1.768,1.565H43.368A1.875,1.875,0,0,1,45.165-6.44Zm3.05,1.666c0-.572.449-1.405,1.166-1.405a.328.328,0,0,1,.116.022v-.384H49.36a1.444,1.444,0,0,0-1.145.79v-.79h-.341v4.158h.341Zm4.144,2.6a2.277,2.277,0,0,0,2.253-2.289,2.277,2.277,0,0,0-2.253-2.289,2.225,2.225,0,0,0-1.884,1.116v-.906h-.341V-.789h.341V-3.3A2.183,2.183,0,0,0,52.359-2.173ZM50.468-4.462A1.939,1.939,0,0,1,52.359-6.44,1.939,1.939,0,0,1,54.25-4.462a1.939,1.939,0,0,1-1.891,1.978A1.939,1.939,0,0,1,50.468-4.462Zm5.071-.312c0-.572.449-1.405,1.166-1.405a.328.328,0,0,1,.116.022v-.384h-.138a1.444,1.444,0,0,0-1.145.79v-.79H55.2v4.158h.341Zm2.3-3.26h-.369v.753h.369Zm-.014,1.492h-.341v4.158h.341Zm1.116,1.485a1.274,1.274,0,0,1,1.275-1.275,1.17,1.17,0,0,1,1.246,1.348v2.6H61.8v-2.7a1.408,1.408,0,0,0-1.5-1.565,1.681,1.681,0,0,0-1.362.674v-.572H58.6v4.158h.341Zm4.9-1.181v-.3h-.616V-7.766l-.341.217v1.007h-.616v.3h.616v3.854h.341V-6.237Z" transform="translate(1.336 32.613)" fill="#fff"/>
      <g id="Group_3307" data-name="Group 3307">
        <path id="Path_2405" data-name="Path 2405" d="M10.825-29.745a8.545,8.545,0,0,1,6.662,2.58q2.346,2.58,2.346,7.334,0,5.192-2.565,8.054a9.2,9.2,0,0,1-7.225,2.862,8.4,8.4,0,0,1-6.631-2.643Q1.067-14.2,1.067-19.049q0-5.129,2.549-7.913A9.283,9.283,0,0,1,10.825-29.745Zm-.438,4.066a4.2,4.2,0,0,0-2.346.579A3.339,3.339,0,0,0,6.76-23.224a12.184,12.184,0,0,0-.407,3.519A16.851,16.851,0,0,0,6.76-15.53a3.813,3.813,0,0,0,1.3,2.174,4,4,0,0,0,2.424.657,4.265,4.265,0,0,0,2.377-.579,3.279,3.279,0,0,0,1.267-1.892,13.112,13.112,0,0,0,.391-3.6,16.492,16.492,0,0,0-.407-4.128,3.763,3.763,0,0,0-1.282-2.142A4.063,4.063,0,0,0,10.388-25.679Zm15.7,4.16L27.5-14.2h.25l1.783-7.037L30.06-23.9h4.785l.281,2.377,1.5,7.319h.281L38.6-21.238l.532-2.659h4.128L38.818-9.259h-4.66l-1.845-8.507h-.344L29.81-9.259H24.962L21.272-23.8l4.473-.188Zm27.555,3.534q.063-2.158-1.751-2.158a4.123,4.123,0,0,0-2.377.938v3.472l.219,6.474H44.792l.219-5.974-.188-8.351,4.723-.375V-21.8h.188a10.067,10.067,0,0,1,3.753-2.283,5.288,5.288,0,0,1,3.581,1.079,3.787,3.787,0,0,1,1.2,3.081l-.125,4.191.188,6.474H53.393Zm12.7,2.252.219,6.474H61.618l.25-6.005-.188-15.607,4.91-.344Z" transform="translate(-1.067 31.215)" fill="#fff"/>
        <g id="Group_3306" data-name="Group 3306" transform="translate(66.608 7.052)">
          <path id="Path_2401" data-name="Path 2401" d="M168.027,39.332l2.18,7.315h.281l2.11-6.893.563-2.813h4.22L172.81,50.375a20.571,20.571,0,0,1-1.688,3.517,10.633,10.633,0,0,1-6.19,5.627h-.352a10.749,10.749,0,0,1-2.18-2.954l.211-.492a8.367,8.367,0,0,0,5.557-4.5l-5.346-14.56,4.713-.211Z" transform="translate(-162.4 -36.8)" fill="#fff"/>
        </g>
      </g>
    </g>
  </g>
</svg>
