<?xml version="1.0" encoding="UTF-8"?>
<svg width="20px" height="24px" viewBox="0 0 20 24" version="1.1" xmlns="http://www.w3.org/2000/svg" xmlns:xlink="http://www.w3.org/1999/xlink">
    <!-- Generator: Sketch 45.2 (43514) - http://www.bohemiancoding.com/sketch -->
    <title>PDF</title>
    <desc>Created with Sketch.</desc>
    <defs></defs>
    <g id="Page-1" stroke="none" stroke-width="1" fill="none" fill-rule="evenodd" opacity="0.4">
        <g id="Agent---My-Files---List-view" transform="translate(-31.000000, -405.000000)" fill="#B1B3C5">
            <g id="Files" transform="translate(-12.000000, 303.000000)">
                <g id="File-2" transform="translate(0.000000, 80.000000)">
                    <g id="PDF" transform="translate(43.000000, 23.000000)">
                        <g id="icn---pdf">
                            <path d="M18.8415179,4.16294643 C19.0811024,4.40253096 19.2864575,4.72767652 19.4575893,5.13839286 C19.6287211,5.5491092 19.7142857,5.92559353 19.7142857,6.26785714 L19.7142857,21.0535714 C19.7142857,21.395835 19.5944952,21.6867548 19.3549107,21.9263393 C19.1153262,22.1659238 18.8244065,22.2857143 18.4821429,22.2857143 L1.23214286,22.2857143 C0.889879241,22.2857143 0.598959531,22.1659238 0.359375,21.9263393 C0.119790469,21.6867548 0,21.395835 0,21.0535714 L0,0.517857143 C0,0.175593527 0.119790469,-0.115326183 0.359375,-0.354910714 C0.598959531,-0.594495246 0.889879241,-0.714285714 1.23214286,-0.714285714 L12.7321429,-0.714285714 C13.0744065,-0.714285714 13.4508908,-0.628721094 13.8616071,-0.457589286 C14.2723235,-0.286457478 14.597469,-0.0811023884 14.8370536,0.158482143 L18.8415179,4.16294643 Z M13.1428571,1.03125 L13.1428571,5.85714286 L17.96875,5.85714286 C17.8831841,5.60900174 17.789063,5.43359426 17.6863839,5.33091518 L13.6690848,1.31361607 C13.5664057,1.21093699 13.3909983,1.1168159 13.1428571,1.03125 Z M18.0714286,20.6428571 L18.0714286,7.5 L12.7321429,7.5 C12.3898792,7.5 12.0989595,7.38020953 11.859375,7.140625 C11.6197905,6.90104047 11.5,6.61012076 11.5,6.26785714 L11.5,0.928571429 L1.64285714,0.928571429 L1.64285714,20.6428571 L18.0714286,20.6428571 Z M11.4743304,13.031808 C11.7566978,13.2542794 12.1160692,13.4938603 12.5524554,13.750558 C13.0572942,13.6906619 13.5578472,13.6607143 14.0541295,13.6607143 C15.3119483,13.6607143 16.0691951,13.8703476 16.3258929,14.2896205 C16.4627983,14.4778655 16.4713548,14.7003335 16.3515625,14.9570312 C16.3515625,14.9655878 16.3472843,14.9741443 16.3387277,14.9827009 L16.313058,15.0083705 L16.313058,15.0212054 C16.2617185,15.3463558 15.9579641,15.5089286 15.4017857,15.5089286 C14.9910694,15.5089286 14.4990728,15.423364 13.9257812,15.2522321 C13.3524897,15.0811003 12.7963197,14.8543541 12.2572545,14.5719866 C10.366248,14.7773448 8.68918142,15.132438 7.22600446,15.6372768 C5.91684613,17.8791035 4.88151422,19 4.11997768,19 C3.99162882,19 3.87183835,18.9700524 3.76060268,18.9101562 L3.45256696,18.7561384 C3.44401037,18.7475818 3.41834099,18.7261906 3.37555804,18.6919643 C3.28999213,18.6063984 3.26432275,18.4523821 3.29854911,18.2299107 C3.37555842,17.8876471 3.61513936,17.496189 4.01729911,17.0555246 C4.41945886,16.6148601 4.98418535,16.2020109 5.71149554,15.8169643 C5.8312878,15.739955 5.92968711,15.7656244 6.00669643,15.8939732 C6.02380961,15.9110864 6.03236607,15.9281993 6.03236607,15.9453125 C6.47730877,15.2180023 6.93507949,14.3751908 7.40569196,13.4168527 C7.98754011,12.2531564 8.43247614,11.1322599 8.74051339,10.0541295 C8.53515522,9.35248905 8.40466918,8.6701112 8.34905134,8.00697545 C8.2934335,7.34383969 8.321242,6.79836523 8.43247768,6.37053571 C8.52660017,6.0282721 8.70628588,5.85714286 8.97154018,5.85714286 L9.25390625,5.85714286 C9.45070783,5.85714286 9.60044592,5.92131632 9.703125,6.04966518 C9.85714363,6.22935358 9.89564771,6.52027329 9.81863839,6.92243304 C9.80152521,6.97377258 9.78441229,7.00799843 9.76729911,7.02511161 C9.7758557,7.05078138 9.78013393,7.08500723 9.78013393,7.12779018 L9.78013393,7.51283482 C9.76302075,8.56529544 9.70312551,9.3867158 9.60044643,9.97712054 C10.0710589,11.3804014 10.6956806,12.3986203 11.4743304,13.031808 Z M4.08147321,18.3069196 C4.52641592,18.1015615 5.11253357,17.425601 5.83984375,16.2790179 C5.40345764,16.6212815 5.02911242,16.9806529 4.71679688,17.3571429 C4.40448133,17.7336328 4.19270889,18.0502219 4.08147321,18.3069196 Z M9.18973214,6.49888393 C9.06138329,6.85826073 9.05282682,7.42298722 9.1640625,8.19308036 C9.17261909,8.13318422 9.20256671,7.94494206 9.25390625,7.62834821 C9.25390625,7.60267844 9.28385387,7.41871451 9.34375,7.07645089 C9.35230659,7.04222453 9.36941951,7.00799868 9.39508929,6.97377232 C9.3865327,6.96521573 9.38225446,6.95665927 9.38225446,6.94810268 C9.37369787,6.9309895 9.36941964,6.9181548 9.36941964,6.90959821 C9.36086305,6.72135323 9.30524605,6.56733691 9.20256696,6.44754464 C9.20256696,6.45610123 9.19828873,6.4646577 9.18973214,6.47321429 L9.18973214,6.49888393 Z M7.59821429,14.9827009 C8.75335399,14.520645 9.9683716,14.1741083 11.2433036,13.9430804 C11.2261904,13.9345238 11.1705734,13.8938806 11.0764509,13.8211496 C10.9823284,13.7484185 10.9138767,13.6906624 10.8710937,13.6478795 C10.2207929,13.0745879 9.67745754,12.3216192 9.24107143,11.3889509 C9.01004349,12.1248177 8.65495031,12.9676292 8.17578125,13.9174107 C7.91908354,14.3965798 7.72656314,14.751673 7.59821429,14.9827009 Z M15.8895089,14.7773438 C15.6841508,14.5719856 15.0851984,14.469308 14.0926339,14.469308 C14.7429348,14.7088926 15.2734354,14.828683 15.6841518,14.828683 C15.8039441,14.828683 15.8809522,14.8244048 15.9151786,14.8158482 C15.9151786,14.8072916 15.9066221,14.7944569 15.8895089,14.7773438 Z" id="ï‡"></path>
                        </g>
                    </g>
                </g>
            </g>
        </g>
    </g>
</svg>