<?xml version="1.0" encoding="UTF-8"?>
<svg width="23px" height="23px" viewBox="0 0 23 23" version="1.1" xmlns="http://www.w3.org/2000/svg" xmlns:xlink="http://www.w3.org/1999/xlink">
    <!-- Generator: Sketch 45.2 (43514) - http://www.bohemiancoding.com/sketch -->
    <title>rental case icon</title>
    <desc>Created with Sketch.</desc>
    <defs></defs>
    <g id="Page-1" stroke="none" stroke-width="1" fill="none" fill-rule="evenodd">
        <g id="General---Show-menu" transform="translate(-92.000000, -465.000000)" stroke-width="1.5" stroke="#7F829F">
            <g id="Menu" transform="translate(-4.000000, 0.000000)">
                <g transform="translate(73.000000, 311.000000)" id="Normal">
                    <g transform="translate(21.000000, 0.000000)">
                        <g id="Rental-cases" transform="translate(3.000000, 155.000000)">
                            <g id="rental-case-icon">
                                <g id="sec-gavel">
                                    <path d="M14.2478,1.95620833 C14.6958,1.50879167 14.6958,0.783125 14.2478,0.335708333 C13.8003833,-0.111708333 13.0747167,-0.111708333 12.6273,0.335708333 L8.50196667,4.46045833 C8.05513333,4.90845833 8.05513333,5.634125 8.50196667,6.08095833 C8.94996667,6.52895833 9.67563333,6.52895833 10.12305,6.08095833 L14.2478,1.95620833 L14.2478,1.95620833 Z" id="Stroke-74"></path>
                                    <path d="M20.6644667,8.372875 C21.1118833,7.924875 21.1118833,7.19920833 20.6644667,6.752375 C20.2164667,6.304375 19.4908,6.304375 19.0439667,6.752375 L14.9186333,10.877125 C14.4712167,11.3245417 14.4712167,12.0502083 14.9186333,12.497625 C15.36605,12.9450417 16.0917167,12.9450417 16.5397167,12.497625 L20.6644667,8.372875 L20.6644667,8.372875 Z" id="Stroke-75"></path>
                                    <path d="M9.86539167,6.27083333 L14.7286417,11.1340833" id="Stroke-76"></path>
                                    <path d="M14.4853333,1.636075 L19.3643333,6.515075" id="Stroke-77"></path>
                                    <path d="M10.33935,9.136225 L0.134516667,19.3066417 C-0.04515,19.4845583 -0.04515,19.7733083 0.134516667,19.9518083 L1.05151667,20.8658917 C1.2306,21.0443917 1.5211,21.0443917 1.6996,20.8658917 L11.8840167,10.7176417" id="Stroke-78" stroke-linejoin="round"></path>
                                </g>
                            </g>
                        </g>
                    </g>
                </g>
            </g>
        </g>
    </g>
</svg>