<?xml version="1.0" encoding="UTF-8"?>
<svg width="17px" height="17px" viewBox="0 0 17 17" version="1.1" xmlns="http://www.w3.org/2000/svg" xmlns:xlink="http://www.w3.org/1999/xlink">
    <!-- Generator: Sketch 45.2 (43514) - http://www.bohemiancoding.com/sketch -->
    <title>star</title>
    <desc>Created with Sketch.</desc>
    <defs></defs>
    <g id="Page-1" stroke="none" stroke-width="1" fill="none" fill-rule="evenodd">
        <g id="Agents---Property-details" transform="translate(-20.000000, -738.000000)" fill="#FEC614">
            <g id="Property-agent" transform="translate(20.000000, 713.000000)">
                <g id="Group" transform="translate(0.000000, 25.000000)">
                    <g id="sha-star">
                        <g id="star">
                            <path d="M13.6605693,16.3928571 C13.6074443,16.3928571 13.5543193,16.3788929 13.5066586,16.3509643 L8.49985499,13.4057143 L3.49305142,16.3509643 C3.38922999,16.4116786 3.25960499,16.4062143 3.16185499,16.3357857 C3.06440856,16.2656607 3.01735499,16.1445357 3.04194428,16.02675 L4.2210157,10.4270714 L0.0966942758,6.59751786 C0.00956927585,6.51646429 -0.0220021527,6.392 0.0156407044,6.27907143 C0.0532835616,6.16614286 0.153158562,6.08539286 0.27185499,6.07294643 L5.86515856,5.48432143 L8.2223907,0.180321429 C8.2712657,0.0707321429 8.3796407,0 8.49985499,0 C8.62006928,0 8.72844428,0.0707321429 8.77731928,0.180321429 L11.1345514,5.48432143 L16.727855,6.07294643 C16.8465514,6.08539286 16.9464264,6.16614286 16.9840693,6.27907143 C17.0217121,6.392 16.9901407,6.51646429 16.9030157,6.59751786 L12.7786943,10.4270714 L13.9577657,16.02675 C13.982355,16.1445357 13.9353014,16.2656607 13.837855,16.3357857 C13.7850336,16.3737321 13.7228014,16.3928571 13.6605693,16.3928571" id="Fill-139"></path>
                        </g>
                    </g>
                </g>
            </g>
        </g>
    </g>
</svg>