<?xml version="1.0" encoding="utf-8"?>
<!-- Generator: Adobe Illustrator 19.1.0, SVG Export Plug-In . SVG Version: 6.00 Build 0)  -->
<svg version="1.1" id="Layer_1" xmlns="http://www.w3.org/2000/svg" xmlns:xlink="http://www.w3.org/1999/xlink" x="0px" y="0px"
	 viewBox="-482 485 35 31" style="enable-background:new -482 485 35 31;" xml:space="preserve">
<style type="text/css">
	.st0{fill:none;stroke:#FFFFFF;stroke-width:2;stroke-linecap:round;stroke-linejoin:round;}
</style>
<title>sho-tags</title>
<desc>Created with Sketch.</desc>
<g id="Page-1">
	<g id="Agent---Maintenance---Tracker" transform="translate(-67.000000, -458.000000)">
		<g id="Progress-bar" transform="translate(25.000000, 285.000000)">
			<g id="Accepted" transform="translate(16.000000, 144.000000)">
				<g id="Group-2" transform="translate(10.000000, 10.000000)">
					<g id="sho-tags" transform="translate(17.000000, 20.000000)">
						<path id="Stroke-127" class="st0" d="M-459.1,491.9c0,1.3-1,2.3-2.3,2.3s-2.3-1-2.3-2.3c0-1.3,1-2.3,2.3-2.3
							S-459.1,490.6-459.1,491.9L-459.1,491.9z"/>
						<path id="Stroke-128" class="st0" d="M-464.7,485c-0.5,0-0.9,0.2-1.3,0.5l-15.5,16.1c-0.7,0.7-0.7,1.8,0,2.5l7.8,7.8
							c0.7,0.7,1.8,0.7,2.5,0l16.1-15.5c0.3-0.3,0.5-0.8,0.5-1.3v-8.4c0-1-0.8-1.8-1.8-1.8H-464.7L-464.7,485z"/>
						<path id="Stroke-129" class="st0" d="M-468.8,513.7c0.7,0.5,1.6,0.4,2.3-0.2l16.1-15.5c0.3-0.3,0.5-0.8,0.5-1.3v-8.4
							c0-0.9-0.7-1.6-1.5-1.8"/>
					</g>
				</g>
			</g>
		</g>
	</g>
</g>
</svg>
