<?xml version="1.0" encoding="UTF-8"?>
<svg width="28px" height="23px" viewBox="0 0 28 23" version="1.1" xmlns="http://www.w3.org/2000/svg" xmlns:xlink="http://www.w3.org/1999/xlink">
    <!-- Generator: Sketch 45.2 (43514) - http://www.bohemiancoding.com/sketch -->
    <title>Traders icon</title>
    <desc>Created with Sketch.</desc>
    <defs></defs>
    <g id="Page-1" stroke="none" stroke-width="1" fill="none" fill-rule="evenodd" stroke-linecap="round" stroke-linejoin="round">
        <g id="General---Show-menu" transform="translate(-92.000000, -366.000000)" stroke-width="1.5" stroke="#7F829F">
            <g id="Menu" transform="translate(-4.000000, 0.000000)">
                <g transform="translate(73.000000, 311.000000)" id="Normal">
                    <g transform="translate(21.000000, 0.000000)">
                        <g id="Traders" transform="translate(3.000000, 56.000000)">
                            <g id="Traders-icon">
                                <g id="con-drill">
                                    <g id="Group-8">
                                        <path d="M5.72107941,9.88229118 L8.64687353,9.88229118 C7.91063824,9.14667353 8.14163824,8.26961471 8.64687353,7.41170294" id="Stroke-380"></path>
                                        <path d="M21,4 L25.9411765,4" id="Stroke-381"></path>
                                        <path d="M1.23529412,15.4193735 L2.47058824,7.41157941" id="Stroke-382"></path>
                                        <path d="M2.47058824,4 L6.17647059,4" id="Stroke-383"></path>
                                        <path d="M2.47058824,2 L6.17647059,2" id="Stroke-384"></path>
                                        <path d="M1.23529412,16 L6.09185294,16" id="Stroke-385"></path>
                                        <path d="M15.4411765,7.41170294 C16.4294118,7.41170294 17.2941176,6.54699706 17.2941176,5.55876176 L17.2941176,1.85287941 C17.2941176,0.864644118 16.4294118,-6.17647059e-05 15.4411765,-6.17647059e-05 L1.85294118,-6.17647059e-05 C0.864705882,-6.17647059e-05 0,0.864644118 0,1.85287941 L0,5.55876176 C0,6.54699706 0.864705882,7.41170294 1.85294118,7.41170294 L15.4411765,7.41170294 L15.4411765,7.41170294 Z" id="Stroke-386"></path>
                                        <path d="M17.2941176,2.47052647 L19.7647059,2.47052647 C20.4465882,2.47052647 21,3.02393824 21,3.70582059 C21,4.38770294 20.4465882,4.94111471 19.7647059,4.94111471 L17.2941176,4.94111471" id="Stroke-387"></path>
                                        <path d="M1.23529412,15.4193735 L1.23529412,19.7645206 C1.23529412,20.4470206 1.78808824,20.9998147 2.47058824,20.9998147 L8.64705882,20.9998147 C9.32955882,20.9998147 9.88235294,20.4470206 9.88235294,19.7645206 L9.88235294,17.2939324 C9.88235294,16.61205 9.32955882,16.0586382 8.64705882,16.0586382 L6.09185294,16.0586382 C5.32164706,16.0586382 4.73920588,15.3613147 4.87632353,14.6034618 L6.17647059,7.41157941" id="Stroke-388"></path>
                                    </g>
                                </g>
                            </g>
                        </g>
                    </g>
                </g>
            </g>
        </g>
    </g>
</svg>