<?xml version="1.0" encoding="UTF-8"?>
<svg width="21px" height="20px" viewBox="0 0 21 20" version="1.1" xmlns="http://www.w3.org/2000/svg" xmlns:xlink="http://www.w3.org/1999/xlink">
    <!-- Generator: Sketch 45.2 (43514) - http://www.bohemiancoding.com/sketch -->
    <title>ui-menu-view</title>
    <desc>Created with Sketch.</desc>
    <defs></defs>
    <g id="Page-1" stroke="none" stroke-width="1" fill="none" fill-rule="evenodd">
        <g id="Agent---My-Files---Grid-view" transform="translate(-335.000000, -245.000000)" fill="#B2B4C6">
            <g id="sort-options" transform="translate(20.000000, 237.000000)">
                <g id="ui-menu-view" transform="translate(315.000000, 8.000000)">
                    <path d="M19.3846154,3.26571429 L1.61538462,3.26571429 C0.7245,3.26571429 0,2.53346939 0,1.63306122 C0,0.732653061 0.7245,0.000408163265 1.61538462,0.000408163265 L19.3846154,0.000408163265 C20.2755,0.000408163265 21,0.732653061 21,1.63306122 C21,2.53346939 20.2755,3.26571429 19.3846154,3.26571429" id="Fill-126"></path>
                    <path d="M19.3846154,11.4289796 L1.61538462,11.4289796 C0.7245,11.4289796 0,10.6967347 0,9.79632653 C0,8.89591837 0.7245,8.16367347 1.61538462,8.16367347 L19.3846154,8.16367347 C20.2755,8.16367347 21,8.89591837 21,9.79632653 C21,10.6967347 20.2755,11.4289796 19.3846154,11.4289796" id="Fill-128"></path>
                    <path d="M19.3846154,19.5922449 L1.61538462,19.5922449 C0.7245,19.5922449 0,18.86 0,17.9595918 C0,17.0591837 0.7245,16.3269388 1.61538462,16.3269388 L19.3846154,16.3269388 C20.2755,16.3269388 21,17.0591837 21,17.9595918 C21,18.86 20.2755,19.5922449 19.3846154,19.5922449" id="Fill-130"></path>
                </g>
            </g>
        </g>
    </g>
</svg>