<?xml version="1.0" encoding="UTF-8"?>
<svg width="20px" height="20px" viewBox="0 0 20 20" version="1.1" xmlns="http://www.w3.org/2000/svg" xmlns:xlink="http://www.w3.org/1999/xlink">
    <!-- Generator: Sketch 45.2 (43514) - http://www.bohemiancoding.com/sketch -->
    <title>ui-tiles-view</title>
    <desc>Created with Sketch.</desc>
    <defs></defs>
    <g id="Page-1" stroke="none" stroke-width="1" fill="none" fill-rule="evenodd">
        <g id="Agent---My-Files---Grid-view" transform="translate(-299.000000, -245.000000)" fill="#162441">
            <g id="sort-options" transform="translate(20.000000, 237.000000)">
                <g id="ui-tiles-view" transform="translate(279.000000, 8.000000)">
                    <path d="M5.2,5.49058824 L0.4,5.49058824 C0.1788,5.49058824 0,5.31529412 0,5.09843137 L0,0.39254902 C0,0.175686275 0.1788,0.000392156863 0.4,0.000392156863 L5.2,0.000392156863 C5.4212,0.000392156863 5.6,0.175686275 5.6,0.39254902 L5.6,5.09843137 C5.6,5.31529412 5.4212,5.49058824 5.2,5.49058824" id="Fill-270"></path>
                    <path d="M12.4,5.49058824 L7.6,5.49058824 C7.3788,5.49058824 7.2,5.31529412 7.2,5.09843137 L7.2,0.39254902 C7.2,0.175686275 7.3788,0.000392156863 7.6,0.000392156863 L12.4,0.000392156863 C12.6212,0.000392156863 12.8,0.175686275 12.8,0.39254902 L12.8,5.09843137 C12.8,5.31529412 12.6212,5.49058824 12.4,5.49058824" id="Fill-271"></path>
                    <path d="M19.6,5.49058824 L14.8,5.49058824 C14.5788,5.49058824 14.4,5.31529412 14.4,5.09843137 L14.4,0.39254902 C14.4,0.175686275 14.5788,0.000392156863 14.8,0.000392156863 L19.6,0.000392156863 C19.8212,0.000392156863 20,0.175686275 20,0.39254902 L20,5.09843137 C20,5.31529412 19.8212,5.49058824 19.6,5.49058824" id="Fill-272"></path>
                    <path d="M5.2,12.5494118 L0.4,12.5494118 C0.1788,12.5494118 0,12.3741176 0,12.1572549 L0,7.45137255 C0,7.2345098 0.1788,7.05921569 0.4,7.05921569 L5.2,7.05921569 C5.4212,7.05921569 5.6,7.2345098 5.6,7.45137255 L5.6,12.1572549 C5.6,12.3741176 5.4212,12.5494118 5.2,12.5494118" id="Fill-273"></path>
                    <path d="M12.4,12.5494118 L7.6,12.5494118 C7.3788,12.5494118 7.2,12.3741176 7.2,12.1572549 L7.2,7.45137255 C7.2,7.2345098 7.3788,7.05921569 7.6,7.05921569 L12.4,7.05921569 C12.6212,7.05921569 12.8,7.2345098 12.8,7.45137255 L12.8,12.1572549 C12.8,12.3741176 12.6212,12.5494118 12.4,12.5494118" id="Fill-274"></path>
                    <path d="M19.6,12.5494118 L14.8,12.5494118 C14.5788,12.5494118 14.4,12.3741176 14.4,12.1572549 L14.4,7.45137255 C14.4,7.2345098 14.5788,7.05921569 14.8,7.05921569 L19.6,7.05921569 C19.8212,7.05921569 20,7.2345098 20,7.45137255 L20,12.1572549 C20,12.3741176 19.8212,12.5494118 19.6,12.5494118" id="Fill-275"></path>
                    <path d="M5.2,19.6082353 L0.4,19.6082353 C0.1788,19.6082353 0,19.4329412 0,19.2160784 L0,14.5101961 C0,14.2933333 0.1788,14.1180392 0.4,14.1180392 L5.2,14.1180392 C5.4212,14.1180392 5.6,14.2933333 5.6,14.5101961 L5.6,19.2160784 C5.6,19.4329412 5.4212,19.6082353 5.2,19.6082353" id="Fill-276"></path>
                    <path d="M12.4,19.6082353 L7.6,19.6082353 C7.3788,19.6082353 7.2,19.4329412 7.2,19.2160784 L7.2,14.5101961 C7.2,14.2933333 7.3788,14.1180392 7.6,14.1180392 L12.4,14.1180392 C12.6212,14.1180392 12.8,14.2933333 12.8,14.5101961 L12.8,19.2160784 C12.8,19.4329412 12.6212,19.6082353 12.4,19.6082353" id="Fill-277"></path>
                    <path d="M19.6,19.6082353 L14.8,19.6082353 C14.5788,19.6082353 14.4,19.4329412 14.4,19.2160784 L14.4,14.5101961 C14.4,14.2933333 14.5788,14.1180392 14.8,14.1180392 L19.6,14.1180392 C19.8212,14.1180392 20,14.2933333 20,14.5101961 L20,19.2160784 C20,19.4329412 19.8212,19.6082353 19.6,19.6082353" id="Fill-278"></path>
                </g>
            </g>
        </g>
    </g>
</svg>