<?xml version="1.0" encoding="UTF-8"?>
<svg width="10px" height="6px" viewBox="0 0 10 6" version="1.1" xmlns="http://www.w3.org/2000/svg" xmlns:xlink="http://www.w3.org/1999/xlink">
    <!-- Generator: Sketch 45.2 (43514) - http://www.bohemiancoding.com/sketch -->
    <title>Fill 112</title>
    <desc>Created with Sketch.</desc>
    <defs></defs>
    <g id="Page-1" stroke="none" stroke-width="1" fill="none" fill-rule="evenodd">
        <g id="Agents---Properties" transform="translate(-121.000000, -123.000000)" fill="#46A4F2">
            <g id="Filters" transform="translate(19.000000, 116.000000)">
                <path d="M109.455559,14.8271431 L104.192331,10.0902376 C104.136804,10.0405001 104.105224,9.96918336 104.105224,9.89470868 C104.105224,9.820234 104.136804,9.74891726 104.192331,9.69917975 L109.455559,4.96227429 C109.533192,4.89253651 109.643983,4.87543102 109.738721,4.91753685 C109.833722,4.95964268 109.894776,5.05411762 109.894776,5.15780322 L109.894776,14.6316141 C109.894776,14.7355629 109.833722,14.8297747 109.738721,14.8718805 C109.704247,14.887407 109.66793,14.8947756 109.631614,14.8947756 C109.567929,14.8947756 109.505034,14.8716174 109.455559,14.8271431 Z" id="Fill-112" transform="translate(107.000000, 9.894776) scale(1, -1) rotate(90.000000) translate(-107.000000, -9.894776) "></path>
            </g>
        </g>
    </g>
</svg>