<?xml version="1.0" encoding="UTF-8"?>
<svg width="37px" height="17px" viewBox="0 0 37 17" version="1.1" xmlns="http://www.w3.org/2000/svg" xmlns:xlink="http://www.w3.org/1999/xlink">
    <!-- Generator: Sketch 45.2 (43514) - http://www.bohemiancoding.com/sketch -->
    <title>Bedroom</title>
    <desc>Created with Sketch.</desc>
    <defs></defs>
    <g id="Symbols" stroke="none" stroke-width="1" fill="none" fill-rule="evenodd">
        <g id="Property-grid-tile" transform="translate(-21.000000, -346.000000)">
            <g id="Bedroom">
                <g transform="translate(20.000000, 344.000000)">
                    <text id="4" font-family=".SFNSText, .SF NS Text" font-size="14" font-weight="normal" fill="#7F829E">
                        <tspan x="29" y="15">4</tspan>
                    </text>
                    <g id="hou-bed-single" fill="#B2B4C6">
                        <path d="M10.171875,7.875 C8.04792188,7.875 6.342,8.39671875 5.98040625,8.74223437 C7.65810938,8.56176562 9.30004687,8.53125 10.171875,8.53125 C11.0437031,8.53125 12.6856406,8.56176562 14.3633438,8.74223437 C14.00175,8.39671875 12.2958281,7.875 10.171875,7.875" id="Fill-96"></path>
                        <path d="M16.40625,2.625 L3.9375,2.625 C3.21365625,2.625 2.625,3.21365625 2.625,3.9375 L2.625,9.39585937 C3.3915,9.13860937 4.31221875,8.95814062 5.25492187,8.8305 C5.3064375,7.73160937 8.20476562,7.21875 10.171875,7.21875 C12.1389844,7.21875 15.0373125,7.73160937 15.0888281,8.8305 C16.0315312,8.95814062 16.95225,9.13860937 17.71875,9.39585937 L17.71875,3.9375 C17.71875,3.21365625 17.1300938,2.625 16.40625,2.625" id="Fill-97"></path>
                        <path d="M19.03125,13.125 L19.03125,11.15625 C19.03125,9.54909375 12.4703906,9.1875 10.171875,9.1875 C7.87335938,9.1875 1.3125,9.54909375 1.3125,11.15625 L1.3125,13.125 L19.03125,13.125 Z" id="Fill-98"></path>
                        <path d="M1.3125,13.78125 L1.3125,18.046875 C1.3125,18.2283281 1.45917188,18.375 1.640625,18.375 L2.296875,18.375 C2.43829688,18.375 2.56364062,18.2847656 2.6079375,18.1505625 L3.18970313,16.40625 L17.1540469,16.40625 L17.7358125,18.1505625 C17.7804375,18.2847656 17.9054531,18.375 18.046875,18.375 L18.703125,18.375 C18.8845781,18.375 19.03125,18.2283281 19.03125,18.046875 L19.03125,13.78125 L1.3125,13.78125 Z" id="Fill-99"></path>
                    </g>
                </g>
            </g>
        </g>
    </g>
</svg>