<?xml version="1.0" encoding="UTF-8"?>
<svg width="16px" height="18px" viewBox="0 0 16 18" version="1.1" xmlns="http://www.w3.org/2000/svg" xmlns:xlink="http://www.w3.org/1999/xlink">
    <!-- Generator: Sketch 45.2 (43514) - http://www.bohemiancoding.com/sketch -->
    <title>calendar</title>
    <desc>Created with Sketch.</desc>
    <defs></defs>
    <g id="Symbols" stroke="none" stroke-width="1" fill="none" fill-rule="evenodd">
        <g id="Dispute" transform="translate(-117.000000, -395.000000)" fill="#B1B3C5">
            <g id="calendar" transform="translate(117.000000, 395.000000)">
                <path d="M1.43042553,16.5584681 L13.8619149,16.5584681 L13.8619149,6.70404255 L1.43042553,6.70404255 L1.43042553,16.5584681 Z M1.43042553,5.27246809 L13.8619149,5.27246809 L13.8619149,3.98451064 L1.43042553,3.98451064 L1.43042553,5.27246809 Z M3.6432766,2.00489362 C3.6432766,1.68893617 3.9006383,1.43157447 4.21544681,1.43157447 C4.53140426,1.43157447 4.78876596,1.68893617 4.78876596,2.00489362 L4.78876596,2.55293617 L3.6432766,2.55293617 L3.6432766,2.00489362 Z M10.5035745,2.00489362 C10.5035745,1.68893617 10.7609362,1.43157447 11.0768936,1.43157447 C11.3928511,1.43157447 11.6490638,1.68893617 11.6490638,2.00489362 L11.6490638,2.55293617 L10.5035745,2.55293617 L10.5035745,2.00489362 Z M13.0806383,2.55293617 L13.0806383,2.00489362 C13.0806383,0.899617021 12.1821702,0 11.0768936,0 C9.97161702,0 9.072,0.899617021 9.072,2.00489362 L9.072,2.55293617 L6.22034043,2.55293617 L6.22034043,2.00489362 C6.22034043,0.899617021 5.3207234,0 4.21544681,0 C3.11131915,0 2.21170213,0.899617021 2.21170213,2.00489362 L2.21170213,2.55293617 L0.715787234,2.55293617 C0.319404255,2.55293617 0,2.87348936 0,3.2687234 L0,17.2742553 C0,17.6694894 0.319404255,17.9900426 0.715787234,17.9900426 L14.5777021,17.9900426 C14.9729362,17.9900426 15.2934894,17.6694894 15.2934894,17.2742553 L15.2934894,3.2687234 C15.2934894,2.87348936 14.9729362,2.55293617 14.5777021,2.55293617 L13.0806383,2.55293617 Z" id="Fill-6"></path>
            </g>
        </g>
    </g>
</svg>