<svg height="512pt" viewBox="0 -51 512 512" width="512pt" xmlns="http://www.w3.org/2000/svg"><path d="m42.667969 153.601562h8.53125v117.460938l-21.929688 43.9375c-2.417969 4.746094-3.675781 10-3.667969 15.324219v45.140625c0 18.851562 15.28125 34.136718 34.132813 34.136718h170.664063c18.851562 0 34.136718-15.285156 34.136718-34.136718v-51.199219c0-1.128906-.226562-2.246094-.667968-3.285156-.425782-1.03125-1.054688-1.964844-1.84375-2.753907l-46.191407-46.191406c-4.789062-4.820312-11.308593-7.523437-18.105469-7.5h-18.527343c-4.710938 0-8.53125-3.824218-8.53125-8.535156v-51.199219h8.53125c14.140625 0 25.601562-11.460937 25.601562-25.601562v-25.597657h93.867188c10.808593-.046874 20.425781-6.875 24.027343-17.066406h44.238282c23.015625-.015625 43.957031-13.3125 53.757812-34.136718h65.707032c14.109374-.070313 25.53125-11.488282 25.601562-25.597657 0-14.140625-11.460938-25.601562-25.601562-25.601562h-65.707032c-9.800781-20.824219-30.742187-34.117188-53.757812-34.132813h-44.238282c-3.601562-10.191406-13.21875-17.0234372-24.027343-17.066406h-256c-23.554688.0273438-42.6406252 19.113281-42.667969 42.667969v68.265625c.0273438 23.550781 19.113281 42.636718 42.667969 42.667968zm187.730469 238.933594h-170.664063c-9.425781 0-17.066406-7.644531-17.066406-17.070312v-45.140625c-.003907-2.648438.625-5.265625 1.824219-7.628907l17.585937-35.214843 37.820313 37.820312c4.792968 4.820313 11.3125 7.519531 18.109374 7.5h129.457032v42.664063c0 9.425781-7.640625 17.070312-17.066406 17.070312zm-51.199219-110.933594h18.527343c2.265626-.003906 4.4375.894532 6.039063 2.5l31.636719 31.632813h-117.394532c-2.265624 0-4.441406-.898437-6.042968-2.5l-43.699219-43.699219v-115.933594h42.667969v68.265626c.027344 23.550781 19.113281 42.636718 42.667968 42.667968h1.570313c3.601563 10.191406 13.21875 17.019532 24.027344 17.066406zm-25.597657-128v93.863282c-14.140624 0-25.601562-11.460938-25.601562-25.597656v-68.265626zm34.132813 25.597657c0 4.714843-3.820313 8.535156-8.535156 8.535156h-8.53125v-34.132813h17.066406zm307.199219-102.398438c.003906 2.300781-.9375 4.503907-2.613282 6.082031-1.5625 1.582032-3.695312 2.46875-5.921874 2.449219h-60.464844c.449218-2.820312.695312-5.671875.734375-8.53125-.039063-2.859375-.285157-5.710937-.734375-8.535156h60.464844c4.714843 0 8.535156 3.820313 8.535156 8.535156zm-87.808594-14.140625c1.652344 4.53125 2.488281 9.316406 2.476562 14.140625.007813 4.867188-.84375 9.695313-2.511718 14.265625-4.964844 14.082032-16.980469 24.507813-31.625 27.4375v-83.40625c14.683594 2.949219 26.71875 13.425782 31.660156 27.5625zm-48.726562 56.804688h-34.132813v-85.332032h34.132813zm-341.332032-76.796875c0-14.140625 11.460938-25.601563 25.601563-25.601563h256c4.710937 0 8.53125 3.820313 8.53125 8.535156v8.53125h-17.066407c-4.710937 0-8.53125 3.820313-8.53125 8.535157 0 4.710937 3.820313 8.53125 8.53125 8.53125h17.066407v17.066406h-17.066407c-4.710937 0-8.53125 3.820313-8.53125 8.535156 0 4.710938 3.820313 8.53125 8.53125 8.53125h17.066407v17.066407h-17.066407c-4.710937 0-8.53125 3.820312-8.53125 8.535156 0 4.710937 3.820313 8.53125 8.53125 8.53125h17.066407v8.535156c0 4.710938-3.820313 8.535156-8.53125 8.535156h-256c-14.140625 0-25.601563-11.464844-25.601563-25.601562zm0 0"/><path d="m51.199219 51.199219h34.132812c4.714844 0 8.535157-3.820313 8.535157-8.53125 0-4.714844-3.820313-8.535157-8.535157-8.535157h-34.132812c-4.710938 0-8.53125 3.820313-8.53125 8.535157 0 4.710937 3.820312 8.53125 8.53125 8.53125zm0 0"/><path d="m51.199219 85.332031h34.132812c4.714844 0 8.535157-3.820312 8.535157-8.53125 0-4.714843-3.820313-8.535156-8.535157-8.535156h-34.132812c-4.710938 0-8.53125 3.820313-8.53125 8.535156 0 4.710938 3.820312 8.53125 8.53125 8.53125zm0 0"/></svg>