<?xml version="1.0" encoding="UTF-8"?>
<svg width="23px" height="16px" viewBox="0 0 23 16" version="1.1" xmlns="http://www.w3.org/2000/svg" xmlns:xlink="http://www.w3.org/1999/xlink">
    <!-- Generator: Sketch 45.2 (43514) - http://www.bohemiancoding.com/sketch -->
    <title>tra-traction</title>
    <desc>Created with Sketch.</desc>
    <defs></defs>
    <g id="Symbols" stroke="none" stroke-width="1" fill="none" fill-rule="evenodd">
        <g id="Property-grid-tile" transform="translate(-137.000000, -346.000000)" fill="#B2B4C6">
            <g id="Garage">
                <g transform="translate(137.000000, 345.000000)">
                    <g id="tra-traction" transform="translate(0.000000, 1.000000)">
                        <path d="M18.2864552,4.96524138 L17.3165241,1.73103448 C17.1046621,1.02537931 16.4674207,0.551448276 15.730869,0.551448276 L6.33831724,0.551448276 C5.60176552,0.551448276 4.96452414,1.02537931 4.75266207,1.73103448 L3.78273103,4.96524138 L18.2864552,4.96524138 Z" id="Fill-45"></path>
                        <path d="M18.6365793,6.06868966 L3.43216552,6.06868966 C2.72871724,6.25903448 2.20678621,6.96082759 2.20678621,7.72386207 L2.20678621,11.0342069 C2.20678621,11.9467586 2.9494069,12.6893793 3.86195862,12.6893793 L18.2067862,12.6893793 C19.1198897,12.6893793 19.8619586,11.9467586 19.8619586,11.0342069 L19.8619586,7.72386207 C19.8619586,6.96082759 19.3400276,6.25903448 18.6365793,6.06868966" id="Fill-46"></path>
                        <path d="M3.31034483,13.7928276 L3.31034483,14.8962759 C3.31034483,15.5048276 3.80524138,15.9997241 4.4137931,15.9997241 L6.62068966,15.9997241 C7.22924138,15.9997241 7.72413793,15.5048276 7.72413793,14.8962759 L7.72413793,13.7928276 L3.31034483,13.7928276 Z" id="Fill-47"></path>
                        <path d="M14.3448276,13.7928276 L14.3448276,14.8962759 C14.3448276,15.5048276 14.8397241,15.9997241 15.4482759,15.9997241 L17.6551724,15.9997241 C18.2637241,15.9997241 18.7586207,15.5048276 18.7586207,14.8962759 L18.7586207,13.7928276 L14.3448276,13.7928276 Z" id="Fill-48"></path>
                        <path d="M2.52452414,5.31867586 L2.96148966,3.86157241 L0.551558621,3.86157241 C0.247006897,3.86157241 -0.000165517241,4.10874483 -0.000165517241,4.41329655 L-0.000165517241,6.6201931 C-0.000165517241,6.92529655 0.247006897,7.17191724 0.551558621,7.17191724 L1.16617931,7.17191724 C1.32893793,6.38791724 1.82438621,5.70764138 2.52452414,5.31867586" id="Fill-49"></path>
                        <path d="M21.5172414,3.8617931 L19.1073103,3.8617931 L19.5442759,5.31889655 C20.2449655,5.70786207 20.7404138,6.38758621 20.9026207,7.17213793 L21.5172414,7.17213793 C21.8217931,7.17213793 22.0689655,6.92496552 22.0689655,6.62041379 L22.0689655,4.41351724 C22.0689655,4.10896552 21.8217931,3.8617931 21.5172414,3.8617931" id="Fill-50"></path>
                    </g>
                </g>
            </g>
        </g>
    </g>
</svg>