<?xml version="1.0" encoding="UTF-8"?>
<svg width="18px" height="26px" viewBox="0 0 18 26" version="1.1" xmlns="http://www.w3.org/2000/svg" xmlns:xlink="http://www.w3.org/1999/xlink">
    <!-- Generator: Sketch 45.2 (43514) - http://www.bohemiancoding.com/sketch -->
    <title>map</title>
    <desc>Created with Sketch.</desc>
    <defs></defs>
    <g id="Page-1" stroke="none" stroke-width="1" fill="none" fill-rule="evenodd">
        <g id="Agents---Property-details" transform="translate(-42.000000, -2113.000000)" fill="#B2B4C6">
            <g id="Map-angd-location" transform="translate(-68.000000, 2015.000000)">
                <path d="M118.821429,110.071429 C117.0265,110.071429 115.571429,108.616357 115.571429,106.821429 C115.571429,105.0265 117.0265,103.571429 118.821429,103.571429 C120.616357,103.571429 122.071429,105.0265 122.071429,106.821429 C122.071429,108.616357 120.616357,110.071429 118.821429,110.071429 M110,106.821429 C110,108.385607 110.415071,109.922393 111.198786,111.264179 L118.419357,123.767857 C118.502464,123.911786 118.655679,124 118.821429,124 C118.987179,124 119.140393,123.911786 119.2235,123.767857 L126.443607,111.264643 C127.227786,109.922393 127.642857,108.385607 127.642857,106.821429 C127.642857,101.957107 123.68575,98 118.821429,98 C113.957107,98 110,101.957107 110,106.821429 Z" id="map"></path>
            </g>
        </g>
    </g>
</svg>