<?xml version="1.0" encoding="UTF-8"?>
<svg width="17px" height="17px" viewBox="0 0 17 17" version="1.1" xmlns="http://www.w3.org/2000/svg" xmlns:xlink="http://www.w3.org/1999/xlink">
    <!-- Generator: Sketch 45.2 (43514) - http://www.bohemiancoding.com/sketch -->
    <title>Combined Shape</title>
    <desc>Created with Sketch.</desc>
    <defs></defs>
    <g id="Page-1" stroke="none" stroke-width="1" fill="none" fill-rule="evenodd">
        <g id="General---Dashboard" transform="translate(-328.000000, -127.000000)" fill="#FFFFFF">
            <g id="Manage-properties" transform="translate(20.000000, 116.000000)">
                <g id="Add-property" transform="translate(297.000000, 0.000000)">
                    <path d="M18.5,18.5 L12,18.5 L12,18.5 C11.4477153,18.5 11,18.9477153 11,19.5 C11,20.0522847 11.4477153,20.5 12,20.5 L18.5,20.5 L18.5,27 C18.5,27.5522847 18.9477153,28 19.5,28 C20.0522847,28 20.5,27.5522847 20.5,27 L20.5,20.5 L27,20.5 C27.5522847,20.5 28,20.0522847 28,19.5 C28,18.9477153 27.5522847,18.5 27,18.5 L20.5,18.5 L20.5,12 L20.5,12 C20.5,11.4477153 20.0522847,11 19.5,11 L19.5,11 L19.5,11 C18.9477153,11 18.5,11.4477153 18.5,12 L18.5,18.5 Z" id="Combined-Shape"></path>
                </g>
            </g>
        </g>
    </g>
</svg>