<?xml version="1.0" encoding="UTF-8"?>
<svg width="25px" height="23px" viewBox="0 0 25 23" version="1.1" xmlns="http://www.w3.org/2000/svg" xmlns:xlink="http://www.w3.org/1999/xlink">
    <!-- Generator: Sketch 45.2 (43514) - http://www.bohemiancoding.com/sketch -->
    <title>Requests</title>
    <desc>Created with Sketch.</desc>
    <defs></defs>
    <g id="Symbols" stroke="none" stroke-width="1" fill="none" fill-rule="evenodd" stroke-linecap="round" stroke-linejoin="round">
        <g id="Mobile---Menu" transform="translate(-250.000000, -14.000000)" stroke-width="1.5" stroke="#162441">
            <g id="Menu">
                <g id="Requests" transform="translate(251.000000, 15.000000)">
                    <g id="request-icon">
                        <g id="sho-tags">
                            <path d="M16.5789474,4.97368421 C16.5789474,5.88884211 15.8362105,6.63157895 14.9210526,6.63157895 C14.0058947,6.63157895 13.2631579,5.88884211 13.2631579,4.97368421 C13.2631579,4.05852632 14.0058947,3.31578947 14.9210526,3.31578947 C15.8362105,3.31578947 16.5789474,4.05852632 16.5789474,4.97368421 L16.5789474,4.97368421 Z" id="Stroke-127"></path>
                            <path d="M12.5232395,0 C12.1640289,0 11.8390816,0.145342105 11.6031079,0.380763158 L0.380818421,12.0368684 C-0.12705,12.5447368 -0.12705,13.3676053 0.380818421,13.8760263 L6.01876579,19.5139737 C6.52663421,20.0218421 7.35060789,20.0218421 7.85847632,19.5139737 L19.5140289,8.29168421 C19.7488974,8.05571053 19.8947921,7.73131579 19.8947921,7.37210526 L19.8947921,1.30089474 C19.8947921,0.583026316 19.3128711,0 18.5938974,0 L12.5232395,0 L12.5232395,0 Z" id="Stroke-128"></path>
                            <path d="M9.53880789,20.7857447 C10.0439132,21.1195342 10.7297289,21.0637184 11.1740447,20.61885 L22.83015,9.39711316 C23.0650184,9.16113947 23.2103605,8.83674474 23.2103605,8.47698158 L23.2103605,2.40577105 C23.2103605,1.75421842 22.7306763,1.21429737 22.1050974,1.11979737" id="Stroke-129"></path>
                        </g>
                    </g>
                </g>
            </g>
        </g>
    </g>
</svg>