<?xml version="1.0" encoding="UTF-8"?>
<svg width="35px" height="31px" viewBox="0 0 35 31" version="1.1" xmlns="http://www.w3.org/2000/svg" xmlns:xlink="http://www.w3.org/1999/xlink">
    <!-- Generator: Sketch 45.2 (43514) - http://www.bohemiancoding.com/sketch -->
    <title>sho-tags</title>
    <desc>Created with Sketch.</desc>
    <defs></defs>
    <g id="Page-1" stroke="none" stroke-width="1" fill="none" fill-rule="evenodd" stroke-linecap="round" stroke-linejoin="round">
        <g id="Agent---Maintenance---Tracker" transform="translate(-67.000000, -458.000000)" stroke="#162441" stroke-width="2">
            <g id="Progress-bar" transform="translate(25.000000, 285.000000)">
                <g id="Accepted" transform="translate(16.000000, 144.000000)">
                    <g id="Group-2" transform="translate(10.000000, 10.000000)">
                        <g id="sho-tags" transform="translate(17.000000, 20.000000)">
                            <path d="M22.8947368,6.86842105 C22.8947368,8.13221053 21.8690526,9.15789474 20.6052632,9.15789474 C19.3414737,9.15789474 18.3157895,8.13221053 18.3157895,6.86842105 C18.3157895,5.60463158 19.3414737,4.57894737 20.6052632,4.57894737 C21.8690526,4.57894737 22.8947368,5.60463158 22.8947368,6.86842105 L22.8947368,6.86842105 Z" id="Stroke-127"></path>
                            <path d="M17.2939974,0 C16.7979447,0 16.3492079,0.200710526 16.0233395,0.525815789 L0.525892105,16.6223421 C-0.17545,17.3236842 -0.17545,18.4600263 0.525892105,19.1621316 L8.31162895,26.9478684 C9.01297105,27.6492105 10.1508395,27.6492105 10.8521816,26.9478684 L26.9479447,11.4504211 C27.2722868,11.1245526 27.4737605,10.6765789 27.4737605,10.1805263 L27.4737605,1.79647368 C27.4737605,0.805131579 26.6701553,0 25.6772868,0 L17.2939974,0 L17.2939974,0 Z" id="Stroke-128"></path>
                            <path d="M13.1726395,28.7041237 C13.8701658,29.1650711 14.8172447,29.0879921 15.4308237,28.47365 L31.52735,12.9769658 C31.8516921,12.6510974 32.0524026,12.2031237 32.0524026,11.7063079 L32.0524026,3.32225526 C32.0524026,2.42249211 31.3899816,1.67688684 30.5260868,1.54638684" id="Stroke-129"></path>
                        </g>
                    </g>
                </g>
            </g>
        </g>
    </g>
</svg>