<?xml version="1.0" encoding="UTF-8"?>
<svg width="24px" height="18px" viewBox="0 0 24 18" version="1.1" xmlns="http://www.w3.org/2000/svg" xmlns:xlink="http://www.w3.org/1999/xlink">
    <!-- Generator: Sketch 45.2 (43514) - http://www.bohemiancoding.com/sketch -->
    <title>Tenants icons</title>
    <desc>Created with Sketch.</desc>
    <defs></defs>
    <g id="Page-1" stroke="none" stroke-width="1" fill="none" fill-rule="evenodd" stroke-linecap="round" stroke-linejoin="round">
        <g id="Strata---Post-details" transform="translate(-19.000000, -403.000000)" stroke="#7F829F" stroke-width="1.5">
            <g id="members" transform="translate(20.000000, 401.000000)">
                <g id="Tenants-icons">
                    <g id="use-user-user-user">
                        <g id="Group-6" transform="translate(0.000000, 3.111111)">
                            <path d="M14.3057383,5.5973136 C14.3057383,7.4001187 12.8445631,8.86129386 11.041758,8.86129386 C9.23895294,8.86129386 7.77777778,7.4001187 7.77777778,5.5973136 C7.77777778,3.7945085 9.23895294,2.33333333 11.041758,2.33333333 C12.8445631,2.33333333 14.3057383,3.7945085 14.3057383,5.5973136 L14.3057383,5.5973136 Z" id="Stroke-103"></path>
                            <path d="M6.0124269,5.80263158 C4.40981259,5.80263158 3.11111111,4.50356743 3.11111111,2.90131579 C3.11111111,1.29906414 4.40981259,0 6.0124269,0 C7.01410618,0 7.89683151,0.507004934 8.41834302,1.2791176" id="Stroke-104"></path>
                            <path d="M3.88888889,15.8612939 C4.07747442,12.2244945 7.08613889,9.33333333 10.7700846,9.33333333 C14.4540303,9.33333333 17.4626948,12.2244945 17.6512803,15.8612939" id="Stroke-105"></path>
                            <path d="M5.80263158,6.22222222 C2.59812829,6.22222222 0,8.81998785 0,12.0248538" id="Stroke-106"></path>
                            <path d="M13.2222222,1.31538405 C13.7404698,0.523324836 14.635163,0 15.6524369,0 C17.2546885,0 18.5537526,1.29906414 18.5537526,2.90131579 C18.5537526,4.50356743 17.2546885,5.80263158 15.6524369,5.80263158" id="Stroke-107"></path>
                            <path d="M21.3581871,12.0248538 C21.3581871,8.81998785 18.7600588,6.22222222 15.5555556,6.22222222" id="Stroke-108"></path>
                        </g>
                    </g>
                </g>
            </g>
        </g>
    </g>
</svg>