<?xml version="1.0" encoding="UTF-8"?>
<svg width="21px" height="21px" viewBox="0 0 21 21" version="1.1" xmlns="http://www.w3.org/2000/svg" xmlns:xlink="http://www.w3.org/1999/xlink">
    <!-- Generator: Sketch 45.2 (43514) - http://www.bohemiancoding.com/sketch -->
    <title>ui-menu</title>
    <desc>Created with Sketch.</desc>
    <defs></defs>
    <g id="Symbols" stroke="none" stroke-width="1" fill="none" fill-rule="evenodd">
        <g id="Mobile---Menu" transform="translate(-327.000000, -15.000000)" fill="#162441">
            <g id="Menu">
                <g id="ui-menu" transform="translate(327.000000, 15.000000)">
                    <path d="M19.3846154,2.27040814 L1.61538462,2.27040814 C0.7245,2.27040814 0,1.76136065 0,1.13540815 C0,0.509455659 0.7245,0.000408163265 1.61538462,0.000408163265 L19.3846154,0.000408163265 C20.2755,0.000408163265 21,0.509455659 21,1.13540815 C21,1.76136065 20.2755,2.27040814 19.3846154,2.27040814" id="Fill-126"></path>
                    <path d="M19.3846154,11.4336735 L1.61538462,11.4336735 C0.7245,11.4336735 0,10.924626 0,10.2986735 C0,9.67272097 0.7245,9.16367347 1.61538462,9.16367347 L19.3846154,9.16367347 C20.2755,9.16367347 21,9.67272097 21,10.2986735 C21,10.924626 20.2755,11.4336735 19.3846154,11.4336735" id="Fill-128"></path>
                    <path d="M19.3846154,20.5969388 L1.61538462,20.5969388 C0.7245,20.5969388 0,20.0878913 0,19.4619388 C0,18.8359863 0.7245,18.3269388 1.61538462,18.3269388 L19.3846154,18.3269388 C20.2755,18.3269388 21,18.8359863 21,19.4619388 C21,20.0878913 20.2755,20.5969388 19.3846154,20.5969388" id="Fill-130"></path>
                </g>
            </g>
        </g>
    </g>
</svg>