<?xml version="1.0" encoding="UTF-8"?>
<svg width="22px" height="24px" viewBox="0 0 22 24" version="1.1" xmlns="http://www.w3.org/2000/svg" xmlns:xlink="http://www.w3.org/1999/xlink">
    <!-- Generator: Sketch 45.2 (43514) - http://www.bohemiancoding.com/sketch -->
    <title>Word doc</title>
    <desc>Created with Sketch.</desc>
    <defs></defs>
    <g id="Page-1" stroke="none" stroke-width="1" fill="none" fill-rule="evenodd" opacity="0.4">
        <g id="Agent---My-Files---List-view" transform="translate(-30.000000, -805.000000)">
            <g id="Files" transform="translate(-12.000000, 303.000000)">
                <g id="File-4" transform="translate(0.000000, 480.000000)">
                    <g id="Word-doc" transform="translate(41.000000, 22.000000)">
                        <g id="icn---doc">
                            <g id="Group" transform="translate(1.000000, 0.000000)">
                                <path d="M19.8415179,5.16294643 C20.0811024,5.40253096 20.2864575,5.72767652 20.4575893,6.13839286 C20.6287211,6.5491092 20.7142857,6.92559353 20.7142857,7.26785714 L20.7142857,22.0535714 C20.7142857,22.395835 20.5944952,22.6867548 20.3549107,22.9263393 C20.1153262,23.1659238 19.8244065,23.2857143 19.4821429,23.2857143 L2.23214286,23.2857143 C1.88987924,23.2857143 1.59895953,23.1659238 1.359375,22.9263393 C1.11979047,22.6867548 1,22.395835 1,22.0535714 L1,1.51785714 C1,1.17559353 1.11979047,0.884673817 1.359375,0.645089286 C1.59895953,0.405504754 1.88987924,0.285714286 2.23214286,0.285714286 L13.7321429,0.285714286 C14.0744065,0.285714286 14.4508908,0.371278906 14.8616071,0.542410714 C15.2723235,0.713542522 15.597469,0.918897612 15.8370536,1.15848214 L19.8415179,5.16294643 Z M14.1428571,2.03125 L14.1428571,6.85714286 L18.96875,6.85714286 C18.8831841,6.60900174 18.789063,6.43359426 18.6863839,6.33091518 L14.6690848,2.31361607 C14.5664057,2.21093699 14.3909983,2.1168159 14.1428571,2.03125 Z M19.0714286,21.6428571 L19.0714286,8.5 L13.7321429,8.5 C13.3898792,8.5 13.0989595,8.38020953 12.859375,8.140625 C12.6197905,7.90104047 12.5,7.61012076 12.5,7.26785714 L12.5,1.92857143 L2.64285714,1.92857143 L2.64285714,21.6428571 L19.0714286,21.6428571 Z" id="" fill="#B1B3C5"></path>
                                <rect id="Rectangle" fill="#B1B3C5" x="0" y="9.08761829" width="22" height="10.3027029" rx="1"></rect>
                                <text id="DOC" font-family="Roboto-Black, Roboto" font-size="8" font-weight="700" fill="#FFFFFF">
                                    <tspan x="3.06835938" y="17">DOC</tspan>
                                </text>
                            </g>
                        </g>
                    </g>
                </g>
            </g>
        </g>
    </g>
</svg>